solid OpenSCAD_Model
  facet normal -1 0 0
    outer loop
      vertex -2 -4.25 9.4369e-16
      vertex -2 6.08402e-15 27.4
      vertex -2 0 0
    endloop
  endfacet
  facet normal -1 -0 0
    outer loop
      vertex -2 6.08402e-15 27.4
      vertex -2 -4.25 9.4369e-16
      vertex -2 -4.25 27.4
    endloop
  endfacet
  facet normal 0 -1 0
    outer loop
      vertex -2 -4.25 9.4369e-16
      vertex 6.5 -4.25 27.4
      vertex -2 -4.25 27.4
    endloop
  endfacet
  facet normal 0 -1 -0
    outer loop
      vertex 6.5 -4.25 27.4
      vertex -2 -4.25 9.4369e-16
      vertex 6.5 -4.25 9.4369e-16
    endloop
  endfacet
  facet normal -0 0 1
    outer loop
      vertex 6.5 -4.25 27.4
      vertex 12.5 -15.1989 27.4
      vertex 12.5 6.08402e-15 27.4
    endloop
  endfacet
  facet normal 0 0 1
    outer loop
      vertex 12.5 -15.1989 27.4
      vertex 6.57957 -19.6 27.4
      vertex 11.5 -25 27.4
    endloop
  endfacet
  facet normal 0 0 1
    outer loop
      vertex 11.5 -25 27.4
      vertex 6.57957 -19.6 27.4
      vertex 9.58658 -24.6194 27.4
    endloop
  endfacet
  facet normal 0 0 1
    outer loop
      vertex 9.58658 -24.6194 27.4
      vertex 6.57957 -19.6 27.4
      vertex 7.96447 -23.5355 27.4
    endloop
  endfacet
  facet normal 0 0 1
    outer loop
      vertex 7.96447 -23.5355 27.4
      vertex 6.57957 -19.6 27.4
      vertex 6.8806 -21.9134 27.4
    endloop
  endfacet
  facet normal 0 0 1
    outer loop
      vertex 6.5 -19.6 27.4
      vertex 12.5 -15.1989 27.4
      vertex 6.5 -4.25 27.4
    endloop
  endfacet
  facet normal -0 0 1
    outer loop
      vertex -2 6.08402e-15 27.4
      vertex 6.5 -4.25 27.4
      vertex 12.5 6.08402e-15 27.4
    endloop
  endfacet
  facet normal 0 0 1
    outer loop
      vertex 6.5 -4.25 27.4
      vertex -2 6.08402e-15 27.4
      vertex -2 -4.25 27.4
    endloop
  endfacet
  facet normal -0 0 1
    outer loop
      vertex 82 -15 27.4
      vertex 87 -19.9 27.4
      vertex 87 -4.3 27.4
    endloop
  endfacet
  facet normal 0 0 1
    outer loop
      vertex 87 -19.9 27.4
      vertex 82 -15 27.4
      vertex 86.9801 -19.9 27.4
    endloop
  endfacet
  facet normal -0 0 1
    outer loop
      vertex 77.1492 -19.25 27.4
      vertex 86.9801 -19.9 27.4
      vertex 82 -15 27.4
    endloop
  endfacet
  facet normal 0 0 1
    outer loop
      vertex 86.9801 -19.9 27.4
      vertex 77.1492 -19.25 27.4
      vertex 86.6194 -21.9134 27.4
    endloop
  endfacet
  facet normal 0 0 1
    outer loop
      vertex 82 -15 27.4
      vertex 87 -4.3 27.4
      vertex 82 -4.3 27.4
    endloop
  endfacet
  facet normal 0 0 1
    outer loop
      vertex 86.6194 -21.9134 27.4
      vertex 77.1492 -19.25 27.4
      vertex 85.5355 -23.5355 27.4
    endloop
  endfacet
  facet normal 0 0 1
    outer loop
      vertex 85.5355 -23.5355 27.4
      vertex 77.1492 -19.25 27.4
      vertex 83.9134 -24.6194 27.4
    endloop
  endfacet
  facet normal 0 0 1
    outer loop
      vertex 83.9134 -24.6194 27.4
      vertex 77.1492 -19.25 27.4
      vertex 82 -25 27.4
    endloop
  endfacet
  facet normal 0 0 1
    outer loop
      vertex 82 -25 27.4
      vertex 77.1492 -19.25 27.4
      vertex 80.0866 -24.6194 27.4
    endloop
  endfacet
  facet normal 0 0 1
    outer loop
      vertex 80.0866 -24.6194 27.4
      vertex 77.1492 -19.25 27.4
      vertex 78.4645 -23.5355 27.4
    endloop
  endfacet
  facet normal 0 0 1
    outer loop
      vertex 78.4645 -23.5355 27.4
      vertex 77.1492 -19.25 27.4
      vertex 77.3806 -21.9134 27.4
    endloop
  endfacet
  facet normal -0 0 1
    outer loop
      vertex 14 -15 27.4
      vertex 77.1492 -19.25 27.4
      vertex 82 -15 27.4
    endloop
  endfacet
  facet normal 0 0 1
    outer loop
      vertex 16.3508 -19.25 27.4
      vertex 15.0355 -23.5355 27.4
      vertex 16.1194 -21.9134 27.4
    endloop
  endfacet
  facet normal 0 0 1
    outer loop
      vertex 77.1492 -19.25 27.4
      vertex 14 -15 27.4
      vertex 16.3508 -19.25 27.4
    endloop
  endfacet
  facet normal -0 0 1
    outer loop
      vertex 14 -15.7725 27.4
      vertex 16.3508 -19.25 27.4
      vertex 14 -15 27.4
    endloop
  endfacet
  facet normal 0 0 1
    outer loop
      vertex 12.5 -15.1989 27.4
      vertex 16.3508 -19.25 27.4
      vertex 14 -15.7725 27.4
    endloop
  endfacet
  facet normal 0 0 1
    outer loop
      vertex 12.5 -15.1989 27.4
      vertex 14 -15.7725 27.4
      vertex 13.4134 -15.3806 27.4
    endloop
  endfacet
  facet normal 0 0 1
    outer loop
      vertex 11.5 -25 27.4
      vertex 16.3508 -19.25 27.4
      vertex 12.5 -15.1989 27.4
    endloop
  endfacet
  facet normal 0 0 1
    outer loop
      vertex 16.3508 -19.25 27.4
      vertex 13.4134 -24.6194 27.4
      vertex 15.0355 -23.5355 27.4
    endloop
  endfacet
  facet normal 0 0 1
    outer loop
      vertex 16.3508 -19.25 27.4
      vertex 11.5 -25 27.4
      vertex 13.4134 -24.6194 27.4
    endloop
  endfacet
  facet normal 0 0 1
    outer loop
      vertex 87 -20 27.4
      vertex 86.9801 -19.9 27.4
      vertex 86.6194 -21.9134 27.4
    endloop
  endfacet
  facet normal 0 0 1
    outer loop
      vertex 77.3806 -21.9134 27.4
      vertex 77.1492 -19.25 27.4
      vertex 77 -20 27.4
    endloop
  endfacet
  facet normal 0 0 1
    outer loop
      vertex 16.5 -20 27.4
      vertex 16.3508 -19.25 27.4
      vertex 16.1194 -21.9134 27.4
    endloop
  endfacet
  facet normal 0 0 1
    outer loop
      vertex 6.8806 -21.9134 27.4
      vertex 6.57957 -19.6 27.4
      vertex 6.5 -20 27.4
    endloop
  endfacet
  facet normal 0 0 1
    outer loop
      vertex 12.5 -15.1989 27.4
      vertex 6.5 -19.6 27.4
      vertex 6.57957 -19.6 27.4
    endloop
  endfacet
  facet normal 0 1 -2.22045e-16
    outer loop
      vertex 12.5 0 0
      vertex -2 6.08402e-15 27.4
      vertex 12.5 6.08402e-15 27.4
    endloop
  endfacet
  facet normal 0 1 -2.22045e-16
    outer loop
      vertex -2 6.08402e-15 27.4
      vertex 12.5 0 0
      vertex -2 0 0
    endloop
  endfacet
  facet normal -7.69164e-20 -2.22034e-16 -1
    outer loop
      vertex 16.1085 -21.9297 4.86938e-15
      vertex 16.5 -20 4.44089e-15
      vertex 16.1194 -21.9134 4.86576e-15
    endloop
  endfacet
  facet normal -1.25038e-19 -2.22025e-16 -1
    outer loop
      vertex 87 -20 4.44089e-15
      vertex 86.6194 -21.9134 4.86576e-15
      vertex 86.9801 -19.9 4.41869e-15
    endloop
  endfacet
  facet normal 0 -2.22043e-16 -1
    outer loop
      vertex 83.4046 -17.2239 3.82448e-15
      vertex 87 -19.9 4.41869e-15
      vertex 86.9801 -19.9 4.41869e-15
    endloop
  endfacet
  facet normal -2.6473e-21 -2.22047e-16 -1
    outer loop
      vertex 83.4046 -17.2239 3.82448e-15
      vertex 86.9801 -19.9 4.41869e-15
      vertex 86.6194 -21.9134 4.86576e-15
    endloop
  endfacet
  facet normal -3.71152e-22 -2.22045e-16 -1
    outer loop
      vertex 83.4046 -17.2239 3.82448e-15
      vertex 86.6194 -21.9134 4.86576e-15
      vertex 85.5355 -23.5355 5.22594e-15
    endloop
  endfacet
  facet normal 9.0332e-21 -2.22042e-16 -1
    outer loop
      vertex 83.4046 -17.2239 3.82448e-15
      vertex 85.5355 -23.5355 5.22594e-15
      vertex 83.9214 -24.6141 5.46542e-15
    endloop
  endfacet
  facet normal -1.09538e-21 -2.22045e-16 -1
    outer loop
      vertex 87 -19.9 4.41869e-15
      vertex 83.4046 -17.2239 3.82448e-15
      vertex 87 -4.3 9.54792e-16
    endloop
  endfacet
  facet normal 1.98541e-21 -2.22046e-16 -1
    outer loop
      vertex 82 -15 3.33067e-15
      vertex 87 -4.3 9.54792e-16
      vertex 83.4046 -17.2239 3.82448e-15
    endloop
  endfacet
  facet normal -0 -2.22045e-16 -1
    outer loop
      vertex 87 -4.3 9.54792e-16
      vertex 82 -15 3.33067e-15
      vertex 82 -4.3 9.54792e-16
    endloop
  endfacet
  facet normal 3.01854e-22 -2.22047e-16 -1
    outer loop
      vertex 54.4307 -19.25 4.27436e-15
      vertex 82 -15 3.33067e-15
      vertex 83.4046 -17.2239 3.82448e-15
    endloop
  endfacet
  facet normal 0 -2.22045e-16 -1
    outer loop
      vertex 14 -15 3.33067e-15
      vertex 54.4307 -19.25 4.27436e-15
      vertex 16.3508 -19.25 4.27436e-15
    endloop
  endfacet
  facet normal -2.50354e-20 -2.22045e-16 -1
    outer loop
      vertex 16.5 -20 4.44089e-15
      vertex 16.1085 -21.9297 4.86938e-15
      vertex 16.3508 -19.25 4.27436e-15
    endloop
  endfacet
  facet normal 1.90779e-21 -2.22047e-16 -1
    outer loop
      vertex 7.30294 -22.5455 5.0061e-15
      vertex 16.3508 -19.25 4.27436e-15
      vertex 16.1085 -21.9297 4.86938e-15
    endloop
  endfacet
  facet normal -2.44907e-20 -2.22058e-16 -1
    outer loop
      vertex 14 -15 3.33067e-15
      vertex 16.3508 -19.25 4.27436e-15
      vertex 14 -15.7725 3.50221e-15
    endloop
  endfacet
  facet normal 0 -2.22045e-16 -1
    outer loop
      vertex 54.4307 -19.25 4.27436e-15
      vertex 14 -15 3.33067e-15
      vertex 82 -15 3.33067e-15
    endloop
  endfacet
  facet normal -6.17427e-22 -2.2205e-16 -1
    outer loop
      vertex 6.8806 -21.9134 4.86576e-15
      vertex 6.5 -20 4.44089e-15
      vertex 6.57957 -19.6 4.35207e-15
    endloop
  endfacet
  facet normal 6.18822e-21 -2.22038e-16 -1
    outer loop
      vertex 16.3508 -19.25 4.27436e-15
      vertex 12.5 -15.1989 3.37484e-15
      vertex 14 -15.7725 3.50221e-15
    endloop
  endfacet
  facet normal -1.63301e-20 -2.22096e-16 -1
    outer loop
      vertex 14 -15.7725 3.50221e-15
      vertex 12.5 -15.1989 3.37484e-15
      vertex 13.4134 -15.3806 3.41518e-15
    endloop
  endfacet
  facet normal 3.29239e-22 -2.22043e-16 -1
    outer loop
      vertex 16.3508 -19.25 4.27436e-15
      vertex 7.30294 -22.5455 5.0061e-15
      vertex 12.5 -15.1989 3.37484e-15
    endloop
  endfacet
  facet normal 9.9252e-22 -2.22044e-16 -1
    outer loop
      vertex 6.57957 -19.6 4.35207e-15
      vertex 12.5 -15.1989 3.37484e-15
      vertex 7.30294 -22.5455 5.0061e-15
    endloop
  endfacet
  facet normal -5.19764e-20 -2.22057e-16 -1
    outer loop
      vertex 6.57957 -19.6 4.35207e-15
      vertex 7.30294 -22.5455 5.0061e-15
      vertex 6.8806 -21.9134 4.86576e-15
    endloop
  endfacet
  facet normal 0 -2.22042e-16 -1
    outer loop
      vertex 6.5 -19.6 4.35207e-15
      vertex 12.5 -15.1989 3.37484e-15
      vertex 6.57957 -19.6 4.35207e-15
    endloop
  endfacet
  facet normal 1.52788e-21 -2.22044e-16 -1
    outer loop
      vertex 12.5 -15.1989 3.37484e-15
      vertex 6.5 -19.6 4.35207e-15
      vertex 6.5 -4.25 9.4369e-16
    endloop
  endfacet
  facet normal 2.19961e-22 -2.22045e-16 -1
    outer loop
      vertex 12.5 -15.1989 3.37484e-15
      vertex 6.5 -4.25 9.4369e-16
      vertex 12.5 0 0
    endloop
  endfacet
  facet normal 0 -2.22045e-16 -1
    outer loop
      vertex -2 0 0
      vertex 6.5 -4.25 9.4369e-16
      vertex -2 -4.25 9.4369e-16
    endloop
  endfacet
  facet normal 0 -2.22045e-16 -1
    outer loop
      vertex 6.5 -4.25 9.4369e-16
      vertex -2 0 0
      vertex 12.5 0 0
    endloop
  endfacet
  facet normal -1 0 0
    outer loop
      vertex 6.5 -19.6 4.35207e-15
      vertex 6.5 -4.25 27.4
      vertex 6.5 -4.25 9.4369e-16
    endloop
  endfacet
  facet normal -1 -0 0
    outer loop
      vertex 6.5 -4.25 27.4
      vertex 6.5 -19.6 4.35207e-15
      vertex 6.5 -19.6 27.4
    endloop
  endfacet
  facet normal 0 -1 0
    outer loop
      vertex 6.5 -19.6 4.35207e-15
      vertex 6.57957 -19.6 27.4
      vertex 6.5 -19.6 27.4
    endloop
  endfacet
  facet normal 0 -1 -0
    outer loop
      vertex 6.57957 -19.6 27.4
      vertex 6.5 -19.6 4.35207e-15
      vertex 6.57957 -19.6 4.35207e-15
    endloop
  endfacet
  facet normal 1 -0 0
    outer loop
      vertex 12.5 -15.1989 27.4
      vertex 12.5 0 0
      vertex 12.5 6.08402e-15 27.4
    endloop
  endfacet
  facet normal 1 0 0
    outer loop
      vertex 12.5 0 0
      vertex 12.5 -15.1989 27.4
      vertex 12.5 -15.1989 3.37484e-15
    endloop
  endfacet
  facet normal -1 0 0
    outer loop
      vertex 72 -4.25 9.4369e-16
      vertex 72 6.08402e-15 27.4
      vertex 72 0 0
    endloop
  endfacet
  facet normal -1 -0 0
    outer loop
      vertex 72 6.08402e-15 27.4
      vertex 72 -4.25 9.4369e-16
      vertex 72 -4.25 27.4
    endloop
  endfacet
  facet normal 0 -1 0
    outer loop
      vertex 72 -4.25 9.4369e-16
      vertex 87 -4.25 27.4
      vertex 72 -4.25 27.4
    endloop
  endfacet
  facet normal 0 -1 -0
    outer loop
      vertex 87 -4.25 27.4
      vertex 72 -4.25 9.4369e-16
      vertex 87 -4.25 9.4369e-16
    endloop
  endfacet
  facet normal 1 -0 0
    outer loop
      vertex 87 -4.25 27.4
      vertex 87 0 0
      vertex 87 6.08402e-15 27.4
    endloop
  endfacet
  facet normal 1 0 0
    outer loop
      vertex 87 0 0
      vertex 87 -4.25 27.4
      vertex 87 -4.25 9.4369e-16
    endloop
  endfacet
  facet normal 0 1 -2.22045e-16
    outer loop
      vertex 87 0 0
      vertex 72 6.08402e-15 27.4
      vertex 87 6.08402e-15 27.4
    endloop
  endfacet
  facet normal 0 1 -2.22045e-16
    outer loop
      vertex 72 6.08402e-15 27.4
      vertex 87 0 0
      vertex 72 0 0
    endloop
  endfacet
  facet normal 0 -2.22045e-16 -1
    outer loop
      vertex 72 -4.25 9.4369e-16
      vertex 87 0 0
      vertex 87 -4.25 9.4369e-16
    endloop
  endfacet
  facet normal -0 -2.22045e-16 -1
    outer loop
      vertex 87 0 0
      vertex 72 -4.25 9.4369e-16
      vertex 72 0 0
    endloop
  endfacet
  facet normal -0 0 1
    outer loop
      vertex 72 6.08402e-15 27.4
      vertex 87 -4.25 27.4
      vertex 87 6.08402e-15 27.4
    endloop
  endfacet
  facet normal 0 0 1
    outer loop
      vertex 87 -4.25 27.4
      vertex 72 6.08402e-15 27.4
      vertex 72 -4.25 27.4
    endloop
  endfacet
  facet normal 0.980781 0.19511 0
    outer loop
      vertex 16.5 -20 27.4
      vertex 16.3508 -19.25 4.27436e-15
      vertex 16.3508 -19.25 27.4
    endloop
  endfacet
  facet normal 0.980781 0.19511 0
    outer loop
      vertex 16.3508 -19.25 4.27436e-15
      vertex 16.5 -20 27.4
      vertex 16.5 -20 4.44089e-15
    endloop
  endfacet
  facet normal 0.555518 0.831505 -0
    outer loop
      vertex 14 -15.7725 3.50221e-15
      vertex 13.4134 -15.3806 27.4
      vertex 14 -15.7725 27.4
    endloop
  endfacet
  facet normal 0.555518 0.831505 0
    outer loop
      vertex 13.4134 -15.3806 27.4
      vertex 14 -15.7725 3.50221e-15
      vertex 13.4134 -15.3806 3.41518e-15
    endloop
  endfacet
  facet normal 0.195104 0.980783 -0
    outer loop
      vertex 13.4134 -15.3806 3.41518e-15
      vertex 12.5 -15.1989 27.4
      vertex 13.4134 -15.3806 27.4
    endloop
  endfacet
  facet normal 0.195104 0.980783 0
    outer loop
      vertex 12.5 -15.1989 27.4
      vertex 13.4134 -15.3806 3.41518e-15
      vertex 12.5 -15.1989 3.37484e-15
    endloop
  endfacet
  facet normal -0.980783 0.195102 0
    outer loop
      vertex 6.5 -20 4.44089e-15
      vertex 6.57957 -19.6 27.4
      vertex 6.57957 -19.6 4.35207e-15
    endloop
  endfacet
  facet normal -0.980783 0.195102 0
    outer loop
      vertex 6.57957 -19.6 27.4
      vertex 6.5 -20 4.44089e-15
      vertex 6.5 -20 27.4
    endloop
  endfacet
  facet normal 0.980785 -0.195091 0
    outer loop
      vertex 16.1194 -21.9134 27.4
      vertex 16.5 -20 4.44089e-15
      vertex 16.5 -20 27.4
    endloop
  endfacet
  facet normal 0.980785 -0.195091 0
    outer loop
      vertex 16.5 -20 4.44089e-15
      vertex 16.1194 -21.9134 27.4
      vertex 16.1194 -21.9134 4.86576e-15
    endloop
  endfacet
  facet normal -0.980785 -0.195091 0
    outer loop
      vertex 6.5 -20 4.44089e-15
      vertex 6.8806 -21.9134 27.4
      vertex 6.5 -20 27.4
    endloop
  endfacet
  facet normal -0.980785 -0.195091 -0
    outer loop
      vertex 6.8806 -21.9134 27.4
      vertex 6.5 -20 4.44089e-15
      vertex 6.8806 -21.9134 4.86576e-15
    endloop
  endfacet
  facet normal -0.831479 -0.555556 0
    outer loop
      vertex 7.30294 -22.5455 5.0061e-15
      vertex 6.8806 -21.9134 27.4
      vertex 6.8806 -21.9134 4.86576e-15
    endloop
  endfacet
  facet normal -0.831479 -0.555556 0
    outer loop
      vertex 6.8806 -21.9134 27.4
      vertex 7.30294 -22.5455 5.0061e-15
      vertex 7.30294 -22.5455 27.4
    endloop
  endfacet
  facet normal 0 0 1
    outer loop
      vertex 6.8806 -21.9134 27.4
      vertex 7.30294 -22.5455 27.4
      vertex 7.96447 -23.5355 27.4
    endloop
  endfacet
  facet normal 0.831265 -0.555877 0
    outer loop
      vertex 16.1085 -21.9297 27.4
      vertex 16.1194 -21.9134 4.86576e-15
      vertex 16.1194 -21.9134 27.4
    endloop
  endfacet
  facet normal 0.831265 -0.555877 0
    outer loop
      vertex 16.1194 -21.9134 4.86576e-15
      vertex 16.1085 -21.9297 27.4
      vertex 16.1085 -21.9297 4.86938e-15
    endloop
  endfacet
  facet normal 0 0 -1
    outer loop
      vertex 16.1194 -21.9134 27.4
      vertex 15.0355 -23.5355 27.4
      vertex 16.1085 -21.9297 27.4
    endloop
  endfacet
  facet normal 0.980769 0.195173 0
    outer loop
      vertex 87 -20 27.4
      vertex 86.9801 -19.9 4.41869e-15
      vertex 86.9801 -19.9 27.4
    endloop
  endfacet
  facet normal 0.980769 0.195173 0
    outer loop
      vertex 86.9801 -19.9 4.41869e-15
      vertex 87 -20 27.4
      vertex 87 -20 4.44089e-15
    endloop
  endfacet
  facet normal 0.980785 -0.195091 0
    outer loop
      vertex 86.6194 -21.9134 27.4
      vertex 87 -20 4.44089e-15
      vertex 87 -20 27.4
    endloop
  endfacet
  facet normal 0.980785 -0.195091 0
    outer loop
      vertex 87 -20 4.44089e-15
      vertex 86.6194 -21.9134 27.4
      vertex 86.6194 -21.9134 4.86576e-15
    endloop
  endfacet
  facet normal 0.555603 -0.831448 0
    outer loop
      vertex 83.9214 -24.6141 5.46542e-15
      vertex 85.5355 -23.5355 27.4
      vertex 83.9214 -24.6141 27.4
    endloop
  endfacet
  facet normal 0.555603 -0.831448 0
    outer loop
      vertex 85.5355 -23.5355 27.4
      vertex 83.9214 -24.6141 5.46542e-15
      vertex 85.5355 -23.5355 5.22594e-15
    endloop
  endfacet
  facet normal 0 0 1
    outer loop
      vertex 85.5355 -23.5355 27.4
      vertex 83.9134 -24.6194 27.4
      vertex 83.9214 -24.6141 27.4
    endloop
  endfacet
  facet normal 0.831458 -0.555587 0
    outer loop
      vertex 85.5355 -23.5355 27.4
      vertex 86.6194 -21.9134 4.86576e-15
      vertex 86.6194 -21.9134 27.4
    endloop
  endfacet
  facet normal 0.831458 -0.555587 0
    outer loop
      vertex 86.6194 -21.9134 4.86576e-15
      vertex 85.5355 -23.5355 27.4
      vertex 85.5355 -23.5355 5.22594e-15
    endloop
  endfacet
  facet normal -1 0 0
    outer loop
      vertex 82 -15 3.33067e-15
      vertex 82 -4.3 27.4
      vertex 82 -4.3 9.54792e-16
    endloop
  endfacet
  facet normal -1 -0 0
    outer loop
      vertex 82 -4.3 27.4
      vertex 82 -15 3.33067e-15
      vertex 82 -15 27.4
    endloop
  endfacet
  facet normal 0 -1 0
    outer loop
      vertex 86.9801 -19.9 4.41869e-15
      vertex 87 -19.9 27.4
      vertex 86.9801 -19.9 27.4
    endloop
  endfacet
  facet normal 0 -1 -0
    outer loop
      vertex 87 -19.9 27.4
      vertex 86.9801 -19.9 4.41869e-15
      vertex 87 -19.9 4.41869e-15
    endloop
  endfacet
  facet normal 1 -0 0
    outer loop
      vertex 87 -19.9 27.4
      vertex 87 -4.3 9.54792e-16
      vertex 87 -4.3 27.4
    endloop
  endfacet
  facet normal 1 0 0
    outer loop
      vertex 87 -4.3 9.54792e-16
      vertex 87 -19.9 27.4
      vertex 87 -19.9 4.41869e-15
    endloop
  endfacet
  facet normal 0 1 -0
    outer loop
      vertex 87 -4.3 9.54792e-16
      vertex 82 -4.3 27.4
      vertex 87 -4.3 27.4
    endloop
  endfacet
  facet normal 0 1 0
    outer loop
      vertex 82 -4.3 27.4
      vertex 87 -4.3 9.54792e-16
      vertex 82 -4.3 9.54792e-16
    endloop
  endfacet
  facet normal -1 0 0
    outer loop
      vertex 14 -15.7725 3.50221e-15
      vertex 14 -15 27.4
      vertex 14 -15 3.33067e-15
    endloop
  endfacet
  facet normal -1 -0 0
    outer loop
      vertex 14 -15 27.4
      vertex 14 -15.7725 3.50221e-15
      vertex 14 -15.7725 27.4
    endloop
  endfacet
  facet normal 0 -1 0
    outer loop
      vertex 16.3508 -19.25 4.27436e-15
      vertex 54.4307 -19.25 27.4
      vertex 16.3508 -19.25 27.4
    endloop
  endfacet
  facet normal 0 -1 -0
    outer loop
      vertex 54.4307 -19.25 27.4
      vertex 16.3508 -19.25 4.27436e-15
      vertex 54.4307 -19.25 4.27436e-15
    endloop
  endfacet
  facet normal 0 0 0
    outer loop
      vertex 16.3508 -19.25 27.4
      vertex 54.4307 -19.25 27.4
      vertex 77.1492 -19.25 27.4
    endloop
  endfacet
  facet normal 0 -1 0
    outer loop
      vertex 60.6656 -19.25 15.1289
      vertex 63.0198 -19.25 13.9191
      vertex 62.3196 -19.25 15.1289
    endloop
  endfacet
  facet normal 0 -1 0
    outer loop
      vertex 59.9595 -19.25 13.9089
      vertex 63.0198 -19.25 13.9191
      vertex 60.6656 -19.25 15.1289
    endloop
  endfacet
  facet normal 0 -1 0
    outer loop
      vertex 59.9595 -19.25 13.4911
      vertex 59.9595 -19.25 13.9089
      vertex 59.8386 -19.25 13.7
    endloop
  endfacet
  facet normal 0 -1 0
    outer loop
      vertex 59.9595 -19.25 13.9089
      vertex 59.9595 -19.25 13.4911
      vertex 63.0198 -19.25 13.9191
    endloop
  endfacet
  facet normal 0 -1 0
    outer loop
      vertex 63.0198 -19.25 13.4809
      vertex 63.0198 -19.25 13.9191
      vertex 59.9595 -19.25 13.4911
    endloop
  endfacet
  facet normal 0 -1 0
    outer loop
      vertex 63.0198 -19.25 13.9191
      vertex 63.0198 -19.25 13.4809
      vertex 63.1466 -19.25 13.7
    endloop
  endfacet
  facet normal 0 -1 0
    outer loop
      vertex 60.6656 -19.25 12.2711
      vertex 63.0198 -19.25 13.4809
      vertex 59.9595 -19.25 13.4911
    endloop
  endfacet
  facet normal 0 -1 0
    outer loop
      vertex 63.0198 -19.25 13.4809
      vertex 60.6656 -19.25 12.2711
      vertex 62.3196 -19.25 12.2711
    endloop
  endfacet
  facet normal 0 1 -0
    outer loop
      vertex 82 -15 3.33067e-15
      vertex 14 -15 27.4
      vertex 82 -15 27.4
    endloop
  endfacet
  facet normal 0 1 0
    outer loop
      vertex 14 -15 27.4
      vertex 82 -15 3.33067e-15
      vertex 14 -15 3.33067e-15
    endloop
  endfacet
  facet normal -0.997564 -0.0697599 0
    outer loop
      vertex -39.8957 -45.8948 0
      vertex -41.2909 -25.9435 27.4
      vertex -41.2909 -25.9435 0
    endloop
  endfacet
  facet normal -0.997564 -0.0697599 0
    outer loop
      vertex -41.2909 -25.9435 27.4
      vertex -39.8957 -45.8948 0
      vertex -39.8957 -45.8948 27.4
    endloop
  endfacet
  facet normal 0.0697568 -0.997564 2.88845e-05
    outer loop
      vertex -39.8957 -45.8948 27.4
      vertex 61.6021 -38.7974 25.6343
      vertex 84.7998 -37.1752 27.4
    endloop
  endfacet
  facet normal 0.0697541 -0.997564 -0.000129816
    outer loop
      vertex -39.8957 -45.8948 27.4
      vertex 59.1542 -38.9685 25.1127
      vertex 61.6021 -38.7974 25.6343
    endloop
  endfacet
  facet normal 0.0697577 -0.997564 2.9767e-05
    outer loop
      vertex -39.8957 -45.8948 27.4
      vertex 56.868 -39.1284 24.0923
      vertex 59.1542 -38.9685 25.1127
    endloop
  endfacet
  facet normal 0.0697571 -0.997564 1.20866e-05
    outer loop
      vertex -39.8957 -45.8948 27.4
      vertex 55.5182 -39.2228 23.1093
      vertex 56.868 -39.1284 24.0923
    endloop
  endfacet
  facet normal 0.0697577 -0.997564 2.54491e-05
    outer loop
      vertex -39.8957 -45.8948 27.4
      vertex 54.8434 -39.27 22.6177
      vertex 55.5182 -39.2228 23.1093
    endloop
  endfacet
  facet normal 0.0697539 -0.997564 -5.08742e-05
    outer loop
      vertex -39.8957 -45.8948 27.4
      vertex 54.2852 -39.309 21.9963
      vertex 54.8434 -39.27 22.6177
    endloop
  endfacet
  facet normal 0.0697582 -0.997564 2.54571e-05
    outer loop
      vertex -39.8957 -45.8948 27.4
      vertex 53.1688 -39.3871 20.7534
      vertex 54.2852 -39.309 21.9963
    endloop
  endfacet
  facet normal 0.0697502 -0.997564 -8.79249e-05
    outer loop
      vertex -39.8957 -45.8948 27.4
      vertex 52.7517 -39.4162 20.0292
      vertex 53.1688 -39.3871 20.7534
    endloop
  endfacet
  facet normal 0.0697606 -0.997564 4.3787e-05
    outer loop
      vertex -39.8957 -45.8948 27.4
      vertex 51.9175 -39.4746 18.5808
      vertex 52.7517 -39.4162 20.0292
    endloop
  endfacet
  facet normal 0.0697574 -0.997564 1.03938e-05
    outer loop
      vertex -39.8957 -45.8948 27.4
      vertex 51.1442 -39.5287 16.1949
      vertex 51.9175 -39.4746 18.5808
    endloop
  endfacet
  facet normal 0.0697517 -0.997564 -3.66199e-05
    outer loop
      vertex -39.8957 -45.8948 27.4
      vertex 50.8826 -39.5469 13.7
      vertex 51.1442 -39.5287 16.1949
    endloop
  endfacet
  facet normal 0.0697572 -0.997564 0
    outer loop
      vertex -39.8957 -45.8948 0
      vertex 50.8826 -39.5469 13.7
      vertex -39.8957 -45.8948 27.4
    endloop
  endfacet
  facet normal 0.0697517 -0.997564 3.66199e-05
    outer loop
      vertex 50.8826 -39.5469 13.7
      vertex -39.8957 -45.8948 0
      vertex 51.1442 -39.5287 11.2051
    endloop
  endfacet
  facet normal 0.0697574 -0.997564 -1.03937e-05
    outer loop
      vertex 51.1442 -39.5287 11.2051
      vertex -39.8957 -45.8948 0
      vertex 51.9175 -39.4746 8.81916
    endloop
  endfacet
  facet normal 0.0697606 -0.997564 -4.37873e-05
    outer loop
      vertex 51.9175 -39.4746 8.81916
      vertex -39.8957 -45.8948 0
      vertex 52.7517 -39.4162 7.37077
    endloop
  endfacet
  facet normal 0.0697502 -0.997564 8.79261e-05
    outer loop
      vertex 52.7517 -39.4162 7.37077
      vertex -39.8957 -45.8948 0
      vertex 53.1688 -39.3871 6.64658
    endloop
  endfacet
  facet normal 0.0697582 -0.997564 -2.54575e-05
    outer loop
      vertex 53.1688 -39.3871 6.64658
      vertex -39.8957 -45.8948 0
      vertex 54.2852 -39.309 5.4037
    endloop
  endfacet
  facet normal 0.0697539 -0.997564 5.08711e-05
    outer loop
      vertex 54.2852 -39.309 5.4037
      vertex -39.8957 -45.8948 0
      vertex 54.8434 -39.27 4.78226
    endloop
  endfacet
  facet normal 0.0697577 -0.997564 -2.5453e-05
    outer loop
      vertex 54.8434 -39.27 4.78226
      vertex -39.8957 -45.8948 0
      vertex 55.5182 -39.2228 4.29074
    endloop
  endfacet
  facet normal 0.0697571 -0.997564 -1.2086e-05
    outer loop
      vertex 55.5182 -39.2228 4.29074
      vertex -39.8957 -45.8948 0
      vertex 56.868 -39.1284 3.30769
    endloop
  endfacet
  facet normal 0.0697568 -0.997564 -2.88839e-05
    outer loop
      vertex 84.7998 -37.1752 0
      vertex 61.6021 -38.7974 1.76574
      vertex -39.8957 -45.8948 0
    endloop
  endfacet
  facet normal 0.0697541 -0.997564 0.000129821
    outer loop
      vertex 59.1542 -38.9685 2.28732
      vertex -39.8957 -45.8948 0
      vertex 61.6021 -38.7974 1.76574
    endloop
  endfacet
  facet normal 0.0697577 -0.997564 -2.97678e-05
    outer loop
      vertex 56.868 -39.1284 3.30769
      vertex -39.8957 -45.8948 0
      vertex 59.1542 -38.9685 2.28732
    endloop
  endfacet
  facet normal 0.0697569 -0.997564 2.714e-05
    outer loop
      vertex 64.1047 -38.6224 25.6343
      vertex 84.7998 -37.1752 27.4
      vertex 61.6021 -38.7974 25.6343
    endloop
  endfacet
  facet normal 0.0697561 -0.997564 3.70919e-05
    outer loop
      vertex 65.7366 -38.5083 25.2865
      vertex 84.7998 -37.1752 27.4
      vertex 64.1047 -38.6224 25.6343
    endloop
  endfacet
  facet normal 0.0697784 -0.997563 -0.000164841
    outer loop
      vertex 66.5525 -38.4512 25.1127
      vertex 84.7998 -37.1752 27.4
      vertex 65.7366 -38.5083 25.2865
    endloop
  endfacet
  facet normal 0.06976 -0.997564 -1.77562e-05
    outer loop
      vertex 67.3146 -38.3979 24.7726
      vertex 84.7998 -37.1752 27.4
      vertex 66.5525 -38.4512 25.1127
    endloop
  endfacet
  facet normal 0.06976 -0.997564 -1.77543e-05
    outer loop
      vertex 68.8388 -38.2913 24.0923
      vertex 84.7998 -37.1752 27.4
      vertex 67.3146 -38.3979 24.7726
    endloop
  endfacet
  facet normal 0.0697596 -0.997564 -1.57514e-05
    outer loop
      vertex 70.1885 -38.1969 23.1093
      vertex 84.7998 -37.1752 27.4
      vertex 68.8388 -38.2913 24.0923
    endloop
  endfacet
  facet normal 0.0697581 -0.997564 -1.06925e-05
    outer loop
      vertex 70.8634 -38.1497 22.6177
      vertex 84.7998 -37.1752 27.4
      vertex 70.1885 -38.1969 23.1093
    endloop
  endfacet
  facet normal 0.0697411 -0.997565 3.92966e-05
    outer loop
      vertex 71.4216 -38.1107 21.9963
      vertex 84.7998 -37.1752 27.4
      vertex 70.8634 -38.1497 22.6177
    endloop
  endfacet
  facet normal 0.0697427 -0.997565 3.51768e-05
    outer loop
      vertex 72.5379 -38.0327 20.7534
      vertex 84.7998 -37.1752 27.4
      vertex 71.4216 -38.1107 21.9963
    endloop
  endfacet
  facet normal 0.0697794 -0.997562 -3.2894e-05
    outer loop
      vertex 73.3721 -37.9743 19.305
      vertex 84.7998 -37.1752 27.4
      vertex 72.5379 -38.0327 20.7534
    endloop
  endfacet
  facet normal 0.0697105 -0.997567 6.49392e-05
    outer loop
      vertex 73.7892 -37.9452 18.5808
      vertex 84.7998 -37.1752 27.4
      vertex 73.3721 -37.9743 19.305
    endloop
  endfacet
  facet normal 0.0698189 -0.99756 -7.10716e-05
    outer loop
      vertex 74.047 -37.9271 17.7855
      vertex 84.7998 -37.1752 27.4
      vertex 73.7892 -37.9452 18.5808
    endloop
  endfacet
  facet normal 0.0697354 -0.997566 2.27757e-05
    outer loop
      vertex 74.5625 -37.8911 16.1949
      vertex 84.7998 -37.1752 27.4
      vertex 74.047 -37.9271 17.7855
    endloop
  endfacet
  facet normal 0.0697626 -0.997564 -2.2125e-06
    outer loop
      vertex 74.7369 -37.8789 14.5316
      vertex 84.7998 -37.1752 27.4
      vertex 74.5625 -37.8911 16.1949
    endloop
  endfacet
  facet normal 0.0697626 -0.997564 -2.21262e-06
    outer loop
      vertex 74.8241 -37.8728 13.7
      vertex 84.7998 -37.1752 27.4
      vertex 74.7369 -37.8789 14.5316
    endloop
  endfacet
  facet normal 0.0697626 -0.997564 2.21262e-06
    outer loop
      vertex 84.7998 -37.1752 0
      vertex 74.8241 -37.8728 13.7
      vertex 74.7369 -37.8789 12.8684
    endloop
  endfacet
  facet normal 0.0697626 -0.997564 2.2125e-06
    outer loop
      vertex 84.7998 -37.1752 0
      vertex 74.7369 -37.8789 12.8684
      vertex 74.5625 -37.8911 11.2051
    endloop
  endfacet
  facet normal 0.0697354 -0.997566 -2.27752e-05
    outer loop
      vertex 84.7998 -37.1752 0
      vertex 74.5625 -37.8911 11.2051
      vertex 74.047 -37.9271 9.61446
    endloop
  endfacet
  facet normal 0.0698189 -0.99756 7.10716e-05
    outer loop
      vertex 84.7998 -37.1752 0
      vertex 74.047 -37.9271 9.61446
      vertex 73.7892 -37.9452 8.81916
    endloop
  endfacet
  facet normal 0.0697105 -0.997567 -6.49392e-05
    outer loop
      vertex 84.7998 -37.1752 0
      vertex 73.7892 -37.9452 8.81916
      vertex 73.3721 -37.9743 8.09496
    endloop
  endfacet
  facet normal 0.0697794 -0.997562 3.28944e-05
    outer loop
      vertex 84.7998 -37.1752 0
      vertex 73.3721 -37.9743 8.09496
      vertex 72.5379 -38.0327 6.64658
    endloop
  endfacet
  facet normal 0.0697411 -0.997565 -3.92948e-05
    outer loop
      vertex 84.7998 -37.1752 0
      vertex 71.4216 -38.1107 5.4037
      vertex 70.8634 -38.1497 4.78226
    endloop
  endfacet
  facet normal 0.06976 -0.997564 1.7755e-05
    outer loop
      vertex 84.7998 -37.1752 0
      vertex 67.3146 -38.3979 2.62745
      vertex 66.5525 -38.4512 2.28732
    endloop
  endfacet
  facet normal 0.0697561 -0.997564 -3.70978e-05
    outer loop
      vertex 84.7998 -37.1752 0
      vertex 65.7366 -38.5083 2.11346
      vertex 64.1047 -38.6224 1.76574
    endloop
  endfacet
  facet normal 0.0697596 -0.997564 0
    outer loop
      vertex 74.8241 -37.8728 13.7
      vertex 84.7998 -37.1752 0
      vertex 84.7998 -37.1752 27.4
    endloop
  endfacet
  facet normal 0.0697427 -0.997565 -3.51773e-05
    outer loop
      vertex 71.4216 -38.1107 5.4037
      vertex 84.7998 -37.1752 0
      vertex 72.5379 -38.0327 6.64658
    endloop
  endfacet
  facet normal 0.0697581 -0.997564 1.06937e-05
    outer loop
      vertex 70.1885 -38.1969 4.29074
      vertex 84.7998 -37.1752 0
      vertex 70.8634 -38.1497 4.78226
    endloop
  endfacet
  facet normal 0.0697596 -0.997564 1.57508e-05
    outer loop
      vertex 68.8388 -38.2913 3.30769
      vertex 84.7998 -37.1752 0
      vertex 70.1885 -38.1969 4.29074
    endloop
  endfacet
  facet normal 0.06976 -0.997564 1.77554e-05
    outer loop
      vertex 67.3146 -38.3979 2.62745
      vertex 84.7998 -37.1752 0
      vertex 68.8388 -38.2913 3.30769
    endloop
  endfacet
  facet normal 0.0697784 -0.997563 0.000164805
    outer loop
      vertex 65.7366 -38.5083 2.11346
      vertex 84.7998 -37.1752 0
      vertex 66.5525 -38.4512 2.28732
    endloop
  endfacet
  facet normal 0.0697569 -0.997564 -2.71393e-05
    outer loop
      vertex 61.6021 -38.7974 1.76574
      vertex 84.7998 -37.1752 0
      vertex 64.1047 -38.6224 1.76574
    endloop
  endfacet
  facet normal 0.997564 0.0697598 0
    outer loop
      vertex 83.9214 -24.6141 27.4
      vertex 84.7998 -37.1752 27.4
      vertex 83.9214 -24.6141 5.46542e-15
    endloop
  endfacet
  facet normal 0.997564 0.0697601 0
    outer loop
      vertex 83.9214 -24.6141 5.46542e-15
      vertex 83.4046 -17.2239 0
      vertex 83.4046 -17.2239 3.82448e-15
    endloop
  endfacet
  facet normal 4.39686e-09 3.07474e-10 -1
    outer loop
      vertex 83.9214 -24.6141 5.46542e-15
      vertex 84.7998 -37.1752 0
      vertex 83.4046 -17.2239 0
    endloop
  endfacet
  facet normal 0.997564 0.0697598 -0
    outer loop
      vertex 84.7998 -37.1752 0
      vertex 83.9214 -24.6141 5.46542e-15
      vertex 84.7998 -37.1752 27.4
    endloop
  endfacet
  facet normal 0 0 1
    outer loop
      vertex 77.1492 -19.25 27.4
      vertex 54.4307 -19.25 27.4
      vertex 77 -20 27.4
    endloop
  endfacet
  facet normal -0 0 1
    outer loop
      vertex 83.9134 -24.6194 27.4
      vertex 84.7998 -37.1752 27.4
      vertex 83.9214 -24.6141 27.4
    endloop
  endfacet
  facet normal -0 0 1
    outer loop
      vertex 82 -25 27.4
      vertex 84.7998 -37.1752 27.4
      vertex 83.9134 -24.6194 27.4
    endloop
  endfacet
  facet normal 0 0 1
    outer loop
      vertex 80.0866 -24.6194 27.4
      vertex 84.7998 -37.1752 27.4
      vertex 82 -25 27.4
    endloop
  endfacet
  facet normal 0 0 1
    outer loop
      vertex 78.4645 -23.5355 27.4
      vertex 84.7998 -37.1752 27.4
      vertex 80.0866 -24.6194 27.4
    endloop
  endfacet
  facet normal 0 0 1
    outer loop
      vertex 54.4307 -19.25 27.4
      vertex 78.4645 -23.5355 27.4
      vertex 77.3806 -21.9134 27.4
    endloop
  endfacet
  facet normal 0 0 1
    outer loop
      vertex 54.4307 -19.25 27.4
      vertex 77.3806 -21.9134 27.4
      vertex 77 -20 27.4
    endloop
  endfacet
  facet normal 0 0 1
    outer loop
      vertex 78.4645 -23.5355 27.4
      vertex 54.4307 -19.25 27.4
      vertex 84.7998 -37.1752 27.4
    endloop
  endfacet
  facet normal 0 0 1
    outer loop
      vertex 15.0355 -23.5355 27.4
      vertex 54.4307 -19.25 27.4
      vertex 16.1085 -21.9297 27.4
    endloop
  endfacet
  facet normal 0 0 1
    outer loop
      vertex 13.4134 -24.6194 27.4
      vertex 54.4307 -19.25 27.4
      vertex 15.0355 -23.5355 27.4
    endloop
  endfacet
  facet normal 0 0 1
    outer loop
      vertex 54.4307 -19.25 27.4
      vertex 13.4134 -24.6194 27.4
      vertex 84.7998 -37.1752 27.4
    endloop
  endfacet
  facet normal -0 0 1
    outer loop
      vertex 11.5 -25 27.4
      vertex 84.7998 -37.1752 27.4
      vertex 13.4134 -24.6194 27.4
    endloop
  endfacet
  facet normal 0 0 1
    outer loop
      vertex 11.5 -25 27.4
      vertex -39.8957 -45.8948 27.4
      vertex 84.7998 -37.1752 27.4
    endloop
  endfacet
  facet normal 0 0 1
    outer loop
      vertex 9.58658 -24.6194 27.4
      vertex -39.8957 -45.8948 27.4
      vertex 11.5 -25 27.4
    endloop
  endfacet
  facet normal 0 0 1
    outer loop
      vertex 7.96447 -23.5355 27.4
      vertex -39.8957 -45.8948 27.4
      vertex 9.58658 -24.6194 27.4
    endloop
  endfacet
  facet normal 0 0 1
    outer loop
      vertex 7.30294 -22.5455 27.4
      vertex -39.8957 -45.8948 27.4
      vertex 7.96447 -23.5355 27.4
    endloop
  endfacet
  facet normal 0 -0 1
    outer loop
      vertex -39.8957 -45.8948 27.4
      vertex 7.30294 -22.5455 27.4
      vertex -41.2909 -25.9435 27.4
    endloop
  endfacet
  facet normal -0.0697552 0.997564 0
    outer loop
      vertex 54.4307 -19.25 27.4
      vertex 16.1085 -21.9297 4.86938e-15
      vertex 16.1085 -21.9297 27.4
    endloop
  endfacet
  facet normal -0.0697552 0.997564 0
    outer loop
      vertex 16.1085 -21.9297 4.86938e-15
      vertex 54.4307 -19.25 27.4
      vertex 54.4307 -19.25 4.27436e-15
    endloop
  endfacet
  facet normal -0.0697562 0.997564 0
    outer loop
      vertex 7.30294 -22.5455 5.0061e-15
      vertex -41.2909 -25.9435 27.4
      vertex 7.30294 -22.5455 27.4
    endloop
  endfacet
  facet normal -1.75308e-17 2.8659e-17 -1
    outer loop
      vertex 54.4307 -19.25 4.27436e-15
      vertex 7.30294 -22.5455 5.0061e-15
      vertex 16.1085 -21.9297 4.86938e-15
    endloop
  endfacet
  facet normal -0.0697581 0.997564 0
    outer loop
      vertex 83.4046 -17.2239 0
      vertex 54.4307 -19.25 4.27436e-15
      vertex 83.4046 -17.2239 3.82448e-15
    endloop
  endfacet
  facet normal -6.09727e-12 8.7195e-11 1
    outer loop
      vertex 54.4307 -19.25 4.27436e-15
      vertex 83.4046 -17.2239 0
      vertex 7.30294 -22.5455 5.0061e-15
    endloop
  endfacet
  facet normal -0.0697562 0.997564 0
    outer loop
      vertex 7.30294 -22.5455 5.0061e-15
      vertex -41.2909 -25.9435 0
      vertex -41.2909 -25.9435 27.4
    endloop
  endfacet
  facet normal -1.23369e-11 1.76425e-10 1
    outer loop
      vertex -41.2909 -25.9435 0
      vertex 7.30294 -22.5455 5.0061e-15
      vertex 83.4046 -17.2239 0
    endloop
  endfacet
  facet normal 0 0 -1
    outer loop
      vertex -39.8957 -45.8948 0
      vertex 83.4046 -17.2239 0
      vertex 84.7998 -37.1752 0
    endloop
  endfacet
  facet normal 0 0 -1
    outer loop
      vertex 83.4046 -17.2239 0
      vertex -39.8957 -45.8948 0
      vertex -41.2909 -25.9435 0
    endloop
  endfacet
  facet normal -0.992099 -0.0693689 -0.104532
    outer loop
      vertex 74.7369 -37.8789 14.5316
      vertex 74.5625 -37.8911 16.1949
      vertex 74.423 -35.896 16.1949
    endloop
  endfacet
  facet normal 0.069748 -0.997565 0
    outer loop
      vertex 63.9651 -36.6272 14.3853
      vertex 68.6992 -36.2962 24.0923
      vertex 63.9651 -36.6272 25.6343
    endloop
  endfacet
  facet normal 0.0697524 -0.997564 -2.17964e-06
    outer loop
      vertex 64.3598 -36.5996 13.7
      vertex 68.6992 -36.2962 24.0923
      vertex 63.9651 -36.6272 14.3853
    endloop
  endfacet
  facet normal 0.0697472 -0.997565 0
    outer loop
      vertex 64.3598 -36.5996 13.7
      vertex 68.6992 -36.2962 3.30769
      vertex 68.6992 -36.2962 24.0923
    endloop
  endfacet
  facet normal 0.0697524 -0.997564 2.17964e-06
    outer loop
      vertex 63.9651 -36.6272 13.0147
      vertex 68.6992 -36.2962 3.30769
      vertex 64.3598 -36.5996 13.7
    endloop
  endfacet
  facet normal 0.069748 -0.997565 0
    outer loop
      vertex 68.6992 -36.2962 3.30769
      vertex 63.9651 -36.6272 13.0147
      vertex 63.9651 -36.6272 1.76574
    endloop
  endfacet
  facet normal -0.74134 -0.0518582 -0.669123
    outer loop
      vertex 71.4216 -38.1107 21.9963
      vertex 70.7239 -36.1546 22.6177
      vertex 72.3984 -36.0375 20.7534
    endloop
  endfacet
  facet normal -0.741305 -0.051833 -0.669163
    outer loop
      vertex 70.7239 -36.1546 22.6177
      vertex 71.4216 -38.1107 21.9963
      vertex 70.8634 -38.1497 22.6177
    endloop
  endfacet
  facet normal 0.0697836 -0.997562 0
    outer loop
      vertex 74.6846 -35.8777 13.7
      vertex 74.423 -35.896 16.1949
      vertex 74.423 -35.896 11.2051
    endloop
  endfacet
  facet normal 0.0697747 -0.997563 4.2174e-05
    outer loop
      vertex 56.7285 -37.1333 3.30769
      vertex 63.9651 -36.6272 1.76574
      vertex 53.0293 -37.3919 6.64658
    endloop
  endfacet
  facet normal -0.405757 -0.0283914 -0.91354
    outer loop
      vertex 68.6992 -36.2962 24.0923
      vertex 68.8388 -38.2913 24.0923
      vertex 67.3146 -38.3979 24.7726
    endloop
  endfacet
  facet normal 0.863913 0.0604029 0.500006
    outer loop
      vertex 51.9175 -39.4746 8.81916
      vertex 52.7517 -39.4162 7.37077
      vertex 51.778 -37.4794 8.81916
    endloop
  endfacet
  facet normal 0.586321 0.0409964 -0.80904
    outer loop
      vertex 56.7285 -37.1333 24.0923
      vertex 56.868 -39.1284 24.0923
      vertex 55.5182 -39.2228 23.1093
    endloop
  endfacet
  facet normal 0.20741 0.0145017 -0.978147
    outer loop
      vertex 59.1542 -38.9685 25.1127
      vertex 61.4626 -36.8022 25.6343
      vertex 61.6021 -38.7974 25.6343
    endloop
  endfacet
  facet normal 0.20741 0.0145024 -0.978147
    outer loop
      vertex 61.4626 -36.8022 25.6343
      vertex 59.1542 -38.9685 25.1127
      vertex 59.0147 -36.9734 25.1127
    endloop
  endfacet
  facet normal -0.405709 -0.0283677 -0.913562
    outer loop
      vertex 66.413 -36.4561 25.1127
      vertex 67.3146 -38.3979 24.7726
      vertex 66.5525 -38.4512 25.1127
    endloop
  endfacet
  facet normal -0.405755 -0.028393 -0.913541
    outer loop
      vertex 67.3146 -38.3979 24.7726
      vertex 66.413 -36.4561 25.1127
      vertex 68.6992 -36.2962 24.0923
    endloop
  endfacet
  facet normal -0.863913 -0.0604066 0.500005
    outer loop
      vertex 73.3721 -37.9743 8.09496
      vertex 73.6497 -35.95 8.81916
      vertex 72.3984 -36.0375 6.64658
    endloop
  endfacet
  facet normal -0.863918 -0.0604032 0.499997
    outer loop
      vertex 73.6497 -35.95 8.81916
      vertex 73.3721 -37.9743 8.09496
      vertex 73.7892 -37.9452 8.81916
    endloop
  endfacet
  facet normal 0 0 1
    outer loop
      vertex 63.9651 -36.6272 1.76574
      vertex 61.6021 -38.7974 1.76574
      vertex 64.1047 -38.6224 1.76574
    endloop
  endfacet
  facet normal 0 -0 1
    outer loop
      vertex 61.6021 -38.7974 1.76574
      vertex 63.9651 -36.6272 1.76574
      vertex 61.4626 -36.8022 1.76574
    endloop
  endfacet
  facet normal -0.992099 -0.0693689 0.104532
    outer loop
      vertex 74.5625 -37.8911 11.2051
      vertex 74.7369 -37.8789 12.8684
      vertex 74.423 -35.896 11.2051
    endloop
  endfacet
  facet normal 0.0697752 -0.997563 -1.286e-05
    outer loop
      vertex 70.7239 -36.1546 4.78226
      vertex 72.3984 -36.0375 6.64658
      vertex 68.6992 -36.2962 3.30769
    endloop
  endfacet
  facet normal -0.207349 -0.0144981 -0.97816
    outer loop
      vertex 65.7366 -38.5083 25.2865
      vertex 66.413 -36.4561 25.1127
      vertex 66.5525 -38.4512 25.1127
    endloop
  endfacet
  facet normal -0.207412 -0.0144763 -0.978147
    outer loop
      vertex 66.413 -36.4561 25.1127
      vertex 65.7366 -38.5083 25.2865
      vertex 63.9651 -36.6272 25.6343
    endloop
  endfacet
  facet normal 0.863914 0.060403 -0.500003
    outer loop
      vertex 52.7517 -39.4162 20.0292
      vertex 51.9175 -39.4746 18.5808
      vertex 51.778 -37.4794 18.5808
    endloop
  endfacet
  facet normal -0.948751 -0.0663379 -0.308984
    outer loop
      vertex 74.423 -35.896 16.1949
      vertex 74.5625 -37.8911 16.1949
      vertex 74.047 -37.9271 17.7855
    endloop
  endfacet
  facet normal -0.586348 -0.0410276 -0.80902
    outer loop
      vertex 70.1885 -38.1969 23.1093
      vertex 68.8388 -38.2913 24.0923
      vertex 68.6992 -36.2962 24.0923
    endloop
  endfacet
  facet normal 0.74133 0.0518322 -0.669136
    outer loop
      vertex 54.2852 -39.309 21.9963
      vertex 53.1688 -39.3871 20.7534
      vertex 53.0293 -37.3919 20.7534
    endloop
  endfacet
  facet normal -0.741357 -0.051834 0.669107
    outer loop
      vertex 72.5379 -38.0327 6.64658
      vertex 72.3984 -36.0375 6.64658
      vertex 71.4216 -38.1107 5.4037
    endloop
  endfacet
  facet normal 0.0697709 -0.997563 8.0939e-06
    outer loop
      vertex 73.6497 -35.95 18.5808
      vertex 72.3984 -36.0375 20.7534
      vertex 68.6992 -36.2962 24.0923
    endloop
  endfacet
  facet normal 0.0697483 -0.997565 0
    outer loop
      vertex 68.6992 -36.2962 24.0923
      vertex 74.423 -35.896 11.2051
      vertex 74.423 -35.896 16.1949
    endloop
  endfacet
  facet normal 0.0697483 -0.997565 0
    outer loop
      vertex 74.423 -35.896 11.2051
      vertex 68.6992 -36.2962 24.0923
      vertex 68.6992 -36.2962 3.30769
    endloop
  endfacet
  facet normal 0.0697747 -0.997563 -4.21743e-05
    outer loop
      vertex 63.9651 -36.6272 25.6343
      vertex 56.7285 -37.1333 24.0923
      vertex 53.0293 -37.3919 20.7534
    endloop
  endfacet
  facet normal 0.0697597 -0.997564 2.8501e-05
    outer loop
      vertex 63.9651 -36.6272 25.6343
      vertex 61.4626 -36.8022 25.6343
      vertex 56.7285 -37.1333 24.0923
    endloop
  endfacet
  facet normal 0.992099 0.0693654 0.104534
    outer loop
      vertex 50.7431 -37.5518 13.7
      vertex 51.1442 -39.5287 11.2051
      vertex 51.0047 -37.5335 11.2051
    endloop
  endfacet
  facet normal 0.992099 0.0693689 0.104532
    outer loop
      vertex 51.1442 -39.5287 11.2051
      vertex 50.7431 -37.5518 13.7
      vertex 50.8826 -39.5469 13.7
    endloop
  endfacet
  facet normal 0.0697836 -0.997562 0
    outer loop
      vertex 51.0047 -37.5335 11.2051
      vertex 51.0047 -37.5335 16.1949
      vertex 50.7431 -37.5518 13.7
    endloop
  endfacet
  facet normal 0.069819 -0.99756 5.14626e-05
    outer loop
      vertex 74.423 -35.896 16.1949
      vertex 73.6497 -35.95 18.5808
      vertex 68.6992 -36.2962 24.0923
    endloop
  endfacet
  facet normal -0.741362 -0.0518344 -0.669101
    outer loop
      vertex 72.3984 -36.0375 20.7534
      vertex 72.5379 -38.0327 20.7534
      vertex 71.4216 -38.1107 21.9963
    endloop
  endfacet
  facet normal 0.069686 -0.997569 -0.000191351
    outer loop
      vertex 68.6992 -36.2962 24.0923
      vertex 66.413 -36.4561 25.1127
      vertex 63.9651 -36.6272 25.6343
    endloop
  endfacet
  facet normal 0.405756 0.028371 -0.913541
    outer loop
      vertex 56.868 -39.1284 24.0923
      vertex 59.0147 -36.9734 25.1127
      vertex 59.1542 -38.9685 25.1127
    endloop
  endfacet
  facet normal 0.405756 0.028371 -0.913541
    outer loop
      vertex 59.0147 -36.9734 25.1127
      vertex 56.868 -39.1284 24.0923
      vertex 56.7285 -37.1333 24.0923
    endloop
  endfacet
  facet normal 0.0697636 -0.997564 1.66368e-05
    outer loop
      vertex 61.4626 -36.8022 25.6343
      vertex 59.0147 -36.9734 25.1127
      vertex 56.7285 -37.1333 24.0923
    endloop
  endfacet
  facet normal 0.741303 0.05187 -0.669163
    outer loop
      vertex 54.2852 -39.309 21.9963
      vertex 54.7038 -37.2749 22.6177
      vertex 54.8434 -39.27 22.6177
    endloop
  endfacet
  facet normal 0.741342 0.0518492 -0.669122
    outer loop
      vertex 54.7038 -37.2749 22.6177
      vertex 54.2852 -39.309 21.9963
      vertex 53.0293 -37.3919 20.7534
    endloop
  endfacet
  facet normal 0.863918 0.0604032 -0.499997
    outer loop
      vertex 52.7517 -39.4162 20.0292
      vertex 53.0293 -37.3919 20.7534
      vertex 53.1688 -39.3871 20.7534
    endloop
  endfacet
  facet normal 0.863915 0.0604051 -0.500001
    outer loop
      vertex 53.0293 -37.3919 20.7534
      vertex 52.7517 -39.4162 20.0292
      vertex 51.778 -37.4794 18.5808
    endloop
  endfacet
  facet normal -0.992099 -0.0693688 -0.104538
    outer loop
      vertex 74.7369 -37.8789 14.5316
      vertex 74.6846 -35.8777 13.7
      vertex 74.8241 -37.8728 13.7
    endloop
  endfacet
  facet normal -0.992099 -0.0693671 -0.104534
    outer loop
      vertex 74.6846 -35.8777 13.7
      vertex 74.7369 -37.8789 14.5316
      vertex 74.423 -35.896 16.1949
    endloop
  endfacet
  facet normal -0.992099 -0.0693671 0.104534
    outer loop
      vertex 74.7369 -37.8789 12.8684
      vertex 74.6846 -35.8777 13.7
      vertex 74.423 -35.896 11.2051
    endloop
  endfacet
  facet normal -0.992099 -0.0693688 0.104538
    outer loop
      vertex 74.6846 -35.8777 13.7
      vertex 74.7369 -37.8789 12.8684
      vertex 74.8241 -37.8728 13.7
    endloop
  endfacet
  facet normal 0.405747 0.0283703 0.913545
    outer loop
      vertex 59.0147 -36.9734 2.28732
      vertex 56.868 -39.1284 3.30769
      vertex 59.1542 -38.9685 2.28732
    endloop
  endfacet
  facet normal 0.405747 0.0283703 0.913545
    outer loop
      vertex 56.868 -39.1284 3.30769
      vertex 59.0147 -36.9734 2.28732
      vertex 56.7285 -37.1333 3.30769
    endloop
  endfacet
  facet normal 0.0697597 -0.997564 -2.8502e-05
    outer loop
      vertex 61.4626 -36.8022 1.76574
      vertex 63.9651 -36.6272 1.76574
      vertex 56.7285 -37.1333 3.30769
    endloop
  endfacet
  facet normal -0.207406 -0.0145118 0.978147
    outer loop
      vertex 64.1047 -38.6224 1.76574
      vertex 65.7366 -38.5083 2.11346
      vertex 63.9651 -36.6272 1.76574
    endloop
  endfacet
  facet normal 0.069686 -0.997569 0.000191355
    outer loop
      vertex 66.413 -36.4561 2.28732
      vertex 68.6992 -36.2962 3.30769
      vertex 63.9651 -36.6272 1.76574
    endloop
  endfacet
  facet normal -0.5864 -0.0410018 -0.808984
    outer loop
      vertex 70.1885 -38.1969 23.1093
      vertex 70.7239 -36.1546 22.6177
      vertex 70.8634 -38.1497 22.6177
    endloop
  endfacet
  facet normal -0.586346 -0.0410251 -0.809021
    outer loop
      vertex 70.7239 -36.1546 22.6177
      vertex 70.1885 -38.1969 23.1093
      vertex 68.6992 -36.2962 24.0923
    endloop
  endfacet
  facet normal 0.0697752 -0.997563 1.28609e-05
    outer loop
      vertex 72.3984 -36.0375 20.7534
      vertex 70.7239 -36.1546 22.6177
      vertex 68.6992 -36.2962 24.0923
    endloop
  endfacet
  facet normal -0.863911 -0.0604028 0.500009
    outer loop
      vertex 72.5379 -38.0327 6.64658
      vertex 73.3721 -37.9743 8.09496
      vertex 72.3984 -36.0375 6.64658
    endloop
  endfacet
  facet normal -0.948745 -0.0663554 0.308997
    outer loop
      vertex 73.6497 -35.95 8.81916
      vertex 74.047 -37.9271 9.61446
      vertex 74.423 -35.896 11.2051
    endloop
  endfacet
  facet normal -0.948731 -0.0663332 0.309045
    outer loop
      vertex 74.047 -37.9271 9.61446
      vertex 73.6497 -35.95 8.81916
      vertex 73.7892 -37.9452 8.81916
    endloop
  endfacet
  facet normal -0.405727 -0.0283893 0.913553
    outer loop
      vertex 68.8388 -38.2913 3.30769
      vertex 68.6992 -36.2962 3.30769
      vertex 67.3146 -38.3979 2.62745
    endloop
  endfacet
  facet normal -0.948744 -0.0663533 -0.309002
    outer loop
      vertex 74.047 -37.9271 17.7855
      vertex 73.6497 -35.95 18.5808
      vertex 74.423 -35.896 16.1949
    endloop
  endfacet
  facet normal -0.948731 -0.0663332 -0.309045
    outer loop
      vertex 73.6497 -35.95 18.5808
      vertex 74.047 -37.9271 17.7855
      vertex 73.7892 -37.9452 18.5808
    endloop
  endfacet
  facet normal -0.863918 -0.0604032 -0.499997
    outer loop
      vertex 73.3721 -37.9743 19.305
      vertex 73.6497 -35.95 18.5808
      vertex 73.7892 -37.9452 18.5808
    endloop
  endfacet
  facet normal -0.863915 -0.0604051 -0.500001
    outer loop
      vertex 73.6497 -35.95 18.5808
      vertex 73.3721 -37.9743 19.305
      vertex 72.3984 -36.0375 20.7534
    endloop
  endfacet
  facet normal -0.207452 -0.014515 -0.978138
    outer loop
      vertex 65.7366 -38.5083 25.2865
      vertex 64.1047 -38.6224 25.6343
      vertex 63.9651 -36.6272 25.6343
    endloop
  endfacet
  facet normal 0 0 -1
    outer loop
      vertex 61.6021 -38.7974 25.6343
      vertex 63.9651 -36.6272 25.6343
      vertex 64.1047 -38.6224 25.6343
    endloop
  endfacet
  facet normal 0 0 -1
    outer loop
      vertex 63.9651 -36.6272 25.6343
      vertex 61.6021 -38.7974 25.6343
      vertex 61.4626 -36.8022 25.6343
    endloop
  endfacet
  facet normal 0.0698873 -0.997555 -0.00016758
    outer loop
      vertex 56.7285 -37.1333 24.0923
      vertex 54.7038 -37.2749 22.6177
      vertex 53.0293 -37.3919 20.7534
    endloop
  endfacet
  facet normal 0.586454 0.041035 -0.808942
    outer loop
      vertex 54.7038 -37.2749 22.6177
      vertex 55.5182 -39.2228 23.1093
      vertex 54.8434 -39.27 22.6177
    endloop
  endfacet
  facet normal 0.586349 0.0409713 -0.809021
    outer loop
      vertex 55.5182 -39.2228 23.1093
      vertex 54.7038 -37.2749 22.6177
      vertex 56.7285 -37.1333 24.0923
    endloop
  endfacet
  facet normal 0.0697152 -0.997567 2.41329e-05
    outer loop
      vertex 53.0293 -37.3919 20.7534
      vertex 51.778 -37.4794 18.5808
      vertex 51.0047 -37.5335 16.1949
    endloop
  endfacet
  facet normal 0.948745 0.0663341 -0.309004
    outer loop
      vertex 51.9175 -39.4746 18.5808
      vertex 51.0047 -37.5335 16.1949
      vertex 51.778 -37.4794 18.5808
    endloop
  endfacet
  facet normal 0.948745 0.0663341 -0.309004
    outer loop
      vertex 51.0047 -37.5335 16.1949
      vertex 51.9175 -39.4746 18.5808
      vertex 51.1442 -39.5287 16.1949
    endloop
  endfacet
  facet normal 0.948746 0.0663342 0.308999
    outer loop
      vertex 51.0047 -37.5335 11.2051
      vertex 51.9175 -39.4746 8.81916
      vertex 51.778 -37.4794 8.81916
    endloop
  endfacet
  facet normal 0.948746 0.0663342 0.308999
    outer loop
      vertex 51.9175 -39.4746 8.81916
      vertex 51.0047 -37.5335 11.2051
      vertex 51.1442 -39.5287 11.2051
    endloop
  endfacet
  facet normal 0.069692 -0.997569 -9.08075e-05
    outer loop
      vertex 53.0293 -37.3919 20.7534
      vertex 61.6714 -36.7876 14.7479
      vertex 61.8909 -36.7723 15.1289
    endloop
  endfacet
  facet normal 0.0697549 -0.997564 1.23512e-07
    outer loop
      vertex 53.0293 -37.3919 20.7534
      vertex 61.0679 -36.8298 13.7
      vertex 61.6714 -36.7876 14.7479
    endloop
  endfacet
  facet normal 0.0697548 -0.997564 0
    outer loop
      vertex 53.0293 -37.3919 6.64658
      vertex 61.0679 -36.8298 13.7
      vertex 53.0293 -37.3919 20.7534
    endloop
  endfacet
  facet normal 0.0697549 -0.997564 -1.23512e-07
    outer loop
      vertex 61.0679 -36.8298 13.7
      vertex 53.0293 -37.3919 6.64658
      vertex 61.6714 -36.7876 12.6521
    endloop
  endfacet
  facet normal 0.0697532 -0.997564 -6.13085e-06
    outer loop
      vertex 63.9651 -36.6272 1.76574
      vertex 61.8909 -36.7723 12.2711
      vertex 53.0293 -37.3919 6.64658
    endloop
  endfacet
  facet normal 0.069692 -0.997569 9.08074e-05
    outer loop
      vertex 61.6714 -36.7876 12.6521
      vertex 53.0293 -37.3919 6.64658
      vertex 61.8909 -36.7723 12.2711
    endloop
  endfacet
  facet normal 0.0697532 -0.997564 6.13083e-06
    outer loop
      vertex 61.8909 -36.7723 15.1289
      vertex 63.9651 -36.6272 25.6343
      vertex 53.0293 -37.3919 20.7534
    endloop
  endfacet
  facet normal 0.069761 -0.997564 4.59642e-06
    outer loop
      vertex 63.5368 -36.6572 15.1289
      vertex 63.9651 -36.6272 25.6343
      vertex 61.8909 -36.7723 15.1289
    endloop
  endfacet
  facet normal 0.0699799 -0.997548 -4.37139e-06
    outer loop
      vertex 63.7563 -36.6418 14.7479
      vertex 63.9651 -36.6272 25.6343
      vertex 63.5368 -36.6572 15.1289
    endloop
  endfacet
  facet normal 0.0697531 -0.997564 0
    outer loop
      vertex 63.9651 -36.6272 25.6343
      vertex 63.7563 -36.6418 14.7479
      vertex 63.9651 -36.6272 14.3853
    endloop
  endfacet
  facet normal 0.0699799 -0.997548 4.3714e-06
    outer loop
      vertex 63.9651 -36.6272 1.76574
      vertex 63.7563 -36.6418 12.6521
      vertex 63.5368 -36.6572 12.2711
    endloop
  endfacet
  facet normal 0.0697531 -0.997564 0
    outer loop
      vertex 63.7563 -36.6418 12.6521
      vertex 63.9651 -36.6272 1.76574
      vertex 63.9651 -36.6272 13.0147
    endloop
  endfacet
  facet normal 0.069761 -0.997564 -4.59643e-06
    outer loop
      vertex 61.8909 -36.7723 12.2711
      vertex 63.9651 -36.6272 1.76574
      vertex 63.5368 -36.6572 12.2711
    endloop
  endfacet
  facet normal 0.0697693 -0.997563 0
    outer loop
      vertex 51.0047 -37.5335 11.2051
      vertex 53.0293 -37.3919 20.7534
      vertex 51.0047 -37.5335 16.1949
    endloop
  endfacet
  facet normal 0.0697693 -0.997563 0
    outer loop
      vertex 53.0293 -37.3919 20.7534
      vertex 51.0047 -37.5335 11.2051
      vertex 53.0293 -37.3919 6.64658
    endloop
  endfacet
  facet normal 0.586341 0.0409977 0.809026
    outer loop
      vertex 56.868 -39.1284 3.30769
      vertex 56.7285 -37.1333 3.30769
      vertex 55.5182 -39.2228 4.29074
    endloop
  endfacet
  facet normal 0.58634 0.040999 0.809027
    outer loop
      vertex 54.7038 -37.2749 4.78226
      vertex 55.5182 -39.2228 4.29074
      vertex 56.7285 -37.1333 3.30769
    endloop
  endfacet
  facet normal 0.586392 0.0410307 0.808988
    outer loop
      vertex 55.5182 -39.2228 4.29074
      vertex 54.7038 -37.2749 4.78226
      vertex 54.8434 -39.27 4.78226
    endloop
  endfacet
  facet normal 0.741325 0.0518318 0.669142
    outer loop
      vertex 53.1688 -39.3871 6.64658
      vertex 54.2852 -39.309 5.4037
      vertex 53.0293 -37.3919 6.64658
    endloop
  endfacet
  facet normal -0.948753 -0.0663381 0.308977
    outer loop
      vertex 74.5625 -37.8911 11.2051
      vertex 74.423 -35.896 11.2051
      vertex 74.047 -37.9271 9.61446
    endloop
  endfacet
  facet normal 0.0697709 -0.997563 -8.09403e-06
    outer loop
      vertex 72.3984 -36.0375 6.64658
      vertex 73.6497 -35.95 8.81916
      vertex 68.6992 -36.2962 3.30769
    endloop
  endfacet
  facet normal 0.069819 -0.99756 -5.14611e-05
    outer loop
      vertex 73.6497 -35.95 8.81916
      vertex 74.423 -35.896 11.2051
      vertex 68.6992 -36.2962 3.30769
    endloop
  endfacet
  facet normal -0.586367 -0.041029 0.809006
    outer loop
      vertex 68.8388 -38.2913 3.30769
      vertex 70.1885 -38.1969 4.29074
      vertex 68.6992 -36.2962 3.30769
    endloop
  endfacet
  facet normal -0.207418 -0.0145029 0.978145
    outer loop
      vertex 66.413 -36.4561 2.28732
      vertex 65.7366 -38.5083 2.11346
      vertex 66.5525 -38.4512 2.28732
    endloop
  endfacet
  facet normal -0.207402 -0.0145083 0.978148
    outer loop
      vertex 65.7366 -38.5083 2.11346
      vertex 66.413 -36.4561 2.28732
      vertex 63.9651 -36.6272 1.76574
    endloop
  endfacet
  facet normal -0.405746 -0.028374 0.913545
    outer loop
      vertex 66.413 -36.4561 2.28732
      vertex 67.3146 -38.3979 2.62745
      vertex 68.6992 -36.2962 3.30769
    endloop
  endfacet
  facet normal -0.405738 -0.0283698 0.913549
    outer loop
      vertex 67.3146 -38.3979 2.62745
      vertex 66.413 -36.4561 2.28732
      vertex 66.5525 -38.4512 2.28732
    endloop
  endfacet
  facet normal -0.863914 -0.060403 -0.500003
    outer loop
      vertex 73.3721 -37.9743 19.305
      vertex 72.5379 -38.0327 20.7534
      vertex 72.3984 -36.0375 20.7534
    endloop
  endfacet
  facet normal 0.992099 0.0693654 -0.104534
    outer loop
      vertex 51.1442 -39.5287 16.1949
      vertex 50.7431 -37.5518 13.7
      vertex 51.0047 -37.5335 16.1949
    endloop
  endfacet
  facet normal 0.992099 0.0693689 -0.104532
    outer loop
      vertex 50.7431 -37.5518 13.7
      vertex 51.1442 -39.5287 16.1949
      vertex 50.8826 -39.5469 13.7
    endloop
  endfacet
  facet normal 0.0697152 -0.997567 -2.41317e-05
    outer loop
      vertex 51.778 -37.4794 8.81916
      vertex 53.0293 -37.3919 6.64658
      vertex 51.0047 -37.5335 11.2051
    endloop
  endfacet
  facet normal 0.863914 0.0604041 0.500005
    outer loop
      vertex 52.7517 -39.4162 7.37077
      vertex 53.0293 -37.3919 6.64658
      vertex 51.778 -37.4794 8.81916
    endloop
  endfacet
  facet normal 0.863915 0.060403 0.500002
    outer loop
      vertex 53.0293 -37.3919 6.64658
      vertex 52.7517 -39.4162 7.37077
      vertex 53.1688 -39.3871 6.64658
    endloop
  endfacet
  facet normal 0.741345 0.0518606 0.669118
    outer loop
      vertex 54.2852 -39.309 5.4037
      vertex 54.7038 -37.2749 4.78226
      vertex 53.0293 -37.3919 6.64658
    endloop
  endfacet
  facet normal 0.741324 0.0518715 0.66914
    outer loop
      vertex 54.7038 -37.2749 4.78226
      vertex 54.2852 -39.309 5.4037
      vertex 54.8434 -39.27 4.78226
    endloop
  endfacet
  facet normal 0.0698873 -0.997555 0.000167568
    outer loop
      vertex 54.7038 -37.2749 4.78226
      vertex 56.7285 -37.1333 3.30769
      vertex 53.0293 -37.3919 6.64658
    endloop
  endfacet
  facet normal 0.207403 0.0145011 0.978148
    outer loop
      vertex 61.4626 -36.8022 1.76574
      vertex 59.1542 -38.9685 2.28732
      vertex 61.6021 -38.7974 1.76574
    endloop
  endfacet
  facet normal 0.207402 0.0145018 0.978148
    outer loop
      vertex 59.1542 -38.9685 2.28732
      vertex 61.4626 -36.8022 1.76574
      vertex 59.0147 -36.9734 2.28732
    endloop
  endfacet
  facet normal 0.0697636 -0.997564 -1.66372e-05
    outer loop
      vertex 59.0147 -36.9734 2.28732
      vertex 61.4626 -36.8022 1.76574
      vertex 56.7285 -37.1333 3.30769
    endloop
  endfacet
  facet normal -0.741344 -0.0518473 0.669119
    outer loop
      vertex 70.7239 -36.1546 4.78226
      vertex 71.4216 -38.1107 5.4037
      vertex 72.3984 -36.0375 6.64658
    endloop
  endfacet
  facet normal -0.741327 -0.0518345 0.66914
    outer loop
      vertex 71.4216 -38.1107 5.4037
      vertex 70.7239 -36.1546 4.78226
      vertex 70.8634 -38.1497 4.78226
    endloop
  endfacet
  facet normal -0.586337 -0.0409975 0.809029
    outer loop
      vertex 70.7239 -36.1546 4.78226
      vertex 70.1885 -38.1969 4.29074
      vertex 70.8634 -38.1497 4.78226
    endloop
  endfacet
  facet normal -0.58634 -0.0409963 0.809027
    outer loop
      vertex 70.1885 -38.1969 4.29074
      vertex 70.7239 -36.1546 4.78226
      vertex 68.6992 -36.2962 3.30769
    endloop
  endfacet
  facet normal -0.863911 -0.0604122 -0.500009
    outer loop
      vertex 63.7563 -36.6418 14.7479
      vertex 62.3196 -19.25 15.1289
      vertex 63.0198 -19.25 13.9191
    endloop
  endfacet
  facet normal -0.863848 -0.0604047 -0.500118
    outer loop
      vertex 62.3196 -19.25 15.1289
      vertex 63.7563 -36.6418 14.7479
      vertex 63.5368 -36.6572 15.1289
    endloop
  endfacet
  facet normal 0.863921 0.0604105 0.499991
    outer loop
      vertex 59.8386 -19.25 13.7
      vertex 61.6714 -36.7876 12.6521
      vertex 59.9595 -19.25 13.4911
    endloop
  endfacet
  facet normal 0.863927 0.0604117 0.49998
    outer loop
      vertex 61.6714 -36.7876 12.6521
      vertex 59.8386 -19.25 13.7
      vertex 61.0679 -36.8298 13.7
    endloop
  endfacet
  facet normal -0.863927 -0.0604115 -0.499981
    outer loop
      vertex 64.3598 -36.5996 13.7
      vertex 63.0198 -19.25 13.9191
      vertex 63.1466 -19.25 13.7
    endloop
  endfacet
  facet normal -0.863913 -0.0604101 -0.500005
    outer loop
      vertex 63.9651 -36.6272 14.3853
      vertex 63.0198 -19.25 13.9191
      vertex 64.3598 -36.5996 13.7
    endloop
  endfacet
  facet normal -0.863955 -0.0604105 -0.499933
    outer loop
      vertex 63.0198 -19.25 13.9191
      vertex 63.9651 -36.6272 14.3853
      vertex 63.7563 -36.6418 14.7479
    endloop
  endfacet
  facet normal 0.863912 0.0604117 -0.500007
    outer loop
      vertex 61.8909 -36.7723 15.1289
      vertex 59.9595 -19.25 13.9089
      vertex 60.6656 -19.25 15.1289
    endloop
  endfacet
  facet normal 0.863855 0.0603985 -0.500106
    outer loop
      vertex 59.9595 -19.25 13.9089
      vertex 61.8909 -36.7723 15.1289
      vertex 61.6714 -36.7876 14.7479
    endloop
  endfacet
  facet normal 0 0 -1
    outer loop
      vertex 61.8909 -36.7723 15.1289
      vertex 62.3196 -19.25 15.1289
      vertex 63.5368 -36.6572 15.1289
    endloop
  endfacet
  facet normal -0 0 -1
    outer loop
      vertex 62.3196 -19.25 15.1289
      vertex 61.8909 -36.7723 15.1289
      vertex 60.6656 -19.25 15.1289
    endloop
  endfacet
  facet normal 0.863912 0.0604117 0.500007
    outer loop
      vertex 59.9595 -19.25 13.4911
      vertex 61.8909 -36.7723 12.2711
      vertex 60.6656 -19.25 12.2711
    endloop
  endfacet
  facet normal 0.863855 0.0603985 0.500106
    outer loop
      vertex 61.8909 -36.7723 12.2711
      vertex 59.9595 -19.25 13.4911
      vertex 61.6714 -36.7876 12.6521
    endloop
  endfacet
  facet normal 0 0 1
    outer loop
      vertex 62.3196 -19.25 12.2711
      vertex 61.8909 -36.7723 12.2711
      vertex 63.5368 -36.6572 12.2711
    endloop
  endfacet
  facet normal 0 -0 1
    outer loop
      vertex 61.8909 -36.7723 12.2711
      vertex 62.3196 -19.25 12.2711
      vertex 60.6656 -19.25 12.2711
    endloop
  endfacet
  facet normal 0.863921 0.0604105 -0.499991
    outer loop
      vertex 61.6714 -36.7876 14.7479
      vertex 59.8386 -19.25 13.7
      vertex 59.9595 -19.25 13.9089
    endloop
  endfacet
  facet normal 0.863927 0.0604117 -0.49998
    outer loop
      vertex 59.8386 -19.25 13.7
      vertex 61.6714 -36.7876 14.7479
      vertex 61.0679 -36.8298 13.7
    endloop
  endfacet
  facet normal -0.863911 -0.0604122 0.500009
    outer loop
      vertex 62.3196 -19.25 12.2711
      vertex 63.7563 -36.6418 12.6521
      vertex 63.0198 -19.25 13.4809
    endloop
  endfacet
  facet normal -0.863848 -0.0604047 0.500118
    outer loop
      vertex 63.7563 -36.6418 12.6521
      vertex 62.3196 -19.25 12.2711
      vertex 63.5368 -36.6572 12.2711
    endloop
  endfacet
  facet normal -0.863927 -0.0604115 0.499981
    outer loop
      vertex 63.0198 -19.25 13.4809
      vertex 64.3598 -36.5996 13.7
      vertex 63.1466 -19.25 13.7
    endloop
  endfacet
  facet normal -0.863913 -0.0604101 0.500005
    outer loop
      vertex 63.0198 -19.25 13.4809
      vertex 63.9651 -36.6272 13.0147
      vertex 64.3598 -36.5996 13.7
    endloop
  endfacet
  facet normal -0.863955 -0.0604105 0.499933
    outer loop
      vertex 63.9651 -36.6272 13.0147
      vertex 63.0198 -19.25 13.4809
      vertex 63.7563 -36.6418 12.6521
    endloop
  endfacet
endsolid OpenSCAD_Model
