solid OpenSCAD_Model
  facet normal -1 0 0
    outer loop
      vertex 0 0 0
      vertex 0 15.7 4.25
      vertex 0 15.7 0
    endloop
  endfacet
  facet normal -1 -0 0
    outer loop
      vertex 0 15.7 4.25
      vertex 0 0 0
      vertex 0 0 4.25
    endloop
  endfacet
  facet normal -0 0 1
    outer loop
      vertex 0 15.7 4.25
      vertex 8 0 4.25
      vertex 8 15.7 4.25
    endloop
  endfacet
  facet normal 0 0 1
    outer loop
      vertex 8 0 4.25
      vertex 0 15.7 4.25
      vertex 0 0 4.25
    endloop
  endfacet
  facet normal 1 -0 0
    outer loop
      vertex 14 0 15
      vertex 14 15.7 0
      vertex 14 15.7 15
    endloop
  endfacet
  facet normal 1 0 0
    outer loop
      vertex 14 15.7 0
      vertex 14 0 15
      vertex 14 0 0
    endloop
  endfacet
  facet normal 0 0 -1
    outer loop
      vertex 0 0 0
      vertex 14 15.7 0
      vertex 14 0 0
    endloop
  endfacet
  facet normal -0 0 -1
    outer loop
      vertex 14 15.7 0
      vertex 0 0 0
      vertex 0 15.7 0
    endloop
  endfacet
  facet normal 0 -1 0
    outer loop
      vertex 0 0 4.25
      vertex 0 0 0
      vertex 8 0 4.25
    endloop
  endfacet
  facet normal 0 -1 0
    outer loop
      vertex 14 0 15
      vertex 8.07957 0 19.6
      vertex 8 0 19.6
    endloop
  endfacet
  facet normal 0 -1 -0
    outer loop
      vertex 17.8508 0 19.25
      vertex 14 0 15
      vertex 77.1492 0 19.25
    endloop
  endfacet
  facet normal 0 -1 0
    outer loop
      vertex 8.07957 0 19.6
      vertex 14 0 15
      vertex 17.8508 0 19.25
    endloop
  endfacet
  facet normal 0 -1 0
    outer loop
      vertex 8 0 4.25
      vertex 14 0 15
      vertex 8 0 19.6
    endloop
  endfacet
  facet normal 0 -1 0
    outer loop
      vertex 8 0 4.25
      vertex 14 0 0
      vertex 14 0 15
    endloop
  endfacet
  facet normal 0 -1 0
    outer loop
      vertex 14 0 0
      vertex 8 0 4.25
      vertex 0 0 0
    endloop
  endfacet
  facet normal 0 -1 0
    outer loop
      vertex 11.0866 0 24.6194
      vertex 14.9134 0 24.6194
      vertex 13 0 25
    endloop
  endfacet
  facet normal 0 -1 0
    outer loop
      vertex 9.46447 0 23.5355
      vertex 14.9134 0 24.6194
      vertex 11.0866 0 24.6194
    endloop
  endfacet
  facet normal 0 -1 0
    outer loop
      vertex 8.07957 0 19.6
      vertex 14.9134 0 24.6194
      vertex 9.46447 0 23.5355
    endloop
  endfacet
  facet normal 0 -1 0
    outer loop
      vertex 8.07957 0 19.6
      vertex 9.46447 0 23.5355
      vertex 8.3806 0 21.9134
    endloop
  endfacet
  facet normal 0 -1 0
    outer loop
      vertex 17.8508 0 19.25
      vertex 14.9134 0 24.6194
      vertex 8.07957 0 19.6
    endloop
  endfacet
  facet normal 0 -1 0
    outer loop
      vertex 8.07957 0 19.6
      vertex 8.3806 0 21.9134
      vertex 8 0 20
    endloop
  endfacet
  facet normal 0 -1 0
    outer loop
      vertex 14.9134 0 24.6194
      vertex 17.8508 0 19.25
      vertex 16.5355 0 23.5355
    endloop
  endfacet
  facet normal 0 -1 0
    outer loop
      vertex 16.5355 0 23.5355
      vertex 17.8508 0 19.25
      vertex 17.6194 0 21.9134
    endloop
  endfacet
  facet normal 0 -1 0
    outer loop
      vertex 17.6194 0 21.9134
      vertex 17.8508 0 19.25
      vertex 18 0 20
    endloop
  endfacet
  facet normal 0 -1 0
    outer loop
      vertex 80.0866 0 24.6194
      vertex 83.9134 0 24.6194
      vertex 82 0 25
    endloop
  endfacet
  facet normal 0 -1 0
    outer loop
      vertex 77.1492 0 19.25
      vertex 80.0866 0 24.6194
      vertex 78.4645 0 23.5355
    endloop
  endfacet
  facet normal 0 -1 -0
    outer loop
      vertex 80.0866 0 24.6194
      vertex 77.1492 0 19.25
      vertex 83.9134 0 24.6194
    endloop
  endfacet
  facet normal 0 -1 0
    outer loop
      vertex 77.1492 0 19.25
      vertex 78.4645 0 23.5355
      vertex 77.3806 0 21.9134
    endloop
  endfacet
  facet normal 0 -1 -0
    outer loop
      vertex 83.9134 0 24.6194
      vertex 77.1492 0 19.25
      vertex 85.5355 0 23.5355
    endloop
  endfacet
  facet normal 0 -1 0
    outer loop
      vertex 77.1492 0 19.25
      vertex 77.3806 0 21.9134
      vertex 77 0 20
    endloop
  endfacet
  facet normal 0 -1 -0
    outer loop
      vertex 85.5355 0 23.5355
      vertex 77.1492 0 19.25
      vertex 86.6194 0 21.9134
    endloop
  endfacet
  facet normal 0 -1 0
    outer loop
      vertex 86.6194 0 21.9134
      vertex 86.9801 0 19.9
      vertex 87 0 20
    endloop
  endfacet
  facet normal 0 -1 -0
    outer loop
      vertex 86.6194 0 21.9134
      vertex 77.1492 0 19.25
      vertex 86.9801 0 19.9
    endloop
  endfacet
  facet normal 0 -1 0
    outer loop
      vertex 82 0 15
      vertex 86.9801 0 19.9
      vertex 77.1492 0 19.25
    endloop
  endfacet
  facet normal 0 -1 0
    outer loop
      vertex 82 0 15
      vertex 77.1492 0 19.25
      vertex 14 0 15
    endloop
  endfacet
  facet normal 0 -1 -0
    outer loop
      vertex 86.9801 0 19.9
      vertex 82 0 15
      vertex 87 0 19.9
    endloop
  endfacet
  facet normal 0 -1 0
    outer loop
      vertex 87 0 4.3
      vertex 82 0 15
      vertex 82 0 4.3
    endloop
  endfacet
  facet normal 0 -1 0
    outer loop
      vertex 82 0 15
      vertex 87 0 4.3
      vertex 87 0 19.9
    endloop
  endfacet
  facet normal 0 1 0
    outer loop
      vertex 82 15.7 15
      vertex 86.9801 15.7 19.9
      vertex 87 15.7 19.9
    endloop
  endfacet
  facet normal 0 1 0
    outer loop
      vertex 14 15.7 15
      vertex 77.1492 15.7 19.25
      vertex 82 15.7 15
    endloop
  endfacet
  facet normal 0 1 0
    outer loop
      vertex 86.9801 15.7 19.9
      vertex 82 15.7 15
      vertex 77.1492 15.7 19.25
    endloop
  endfacet
  facet normal 0 1 -0
    outer loop
      vertex 87 15.7 4.3
      vertex 82 15.7 15
      vertex 87 15.7 19.9
    endloop
  endfacet
  facet normal 0 1 0
    outer loop
      vertex 82 15.7 15
      vertex 87 15.7 4.3
      vertex 82 15.7 4.3
    endloop
  endfacet
  facet normal 0 1 0
    outer loop
      vertex 83.9134 15.7 24.6194
      vertex 80.0866 15.7 24.6194
      vertex 82 15.7 25
    endloop
  endfacet
  facet normal 0 1 0
    outer loop
      vertex 85.5355 15.7 23.5355
      vertex 80.0866 15.7 24.6194
      vertex 83.9134 15.7 24.6194
    endloop
  endfacet
  facet normal 0 1 0
    outer loop
      vertex 77.1492 15.7 19.25
      vertex 80.0866 15.7 24.6194
      vertex 85.5355 15.7 23.5355
    endloop
  endfacet
  facet normal 0 1 0
    outer loop
      vertex 77.1492 15.7 19.25
      vertex 85.5355 15.7 23.5355
      vertex 86.6194 15.7 21.9134
    endloop
  endfacet
  facet normal 0 1 0
    outer loop
      vertex 80.0866 15.7 24.6194
      vertex 77.1492 15.7 19.25
      vertex 78.4645 15.7 23.5355
    endloop
  endfacet
  facet normal 0 1 -0
    outer loop
      vertex 86.9801 15.7 19.9
      vertex 86.6194 15.7 21.9134
      vertex 87 15.7 20
    endloop
  endfacet
  facet normal 0 1 0
    outer loop
      vertex 77.1492 15.7 19.25
      vertex 86.6194 15.7 21.9134
      vertex 86.9801 15.7 19.9
    endloop
  endfacet
  facet normal 0 1 0
    outer loop
      vertex 78.4645 15.7 23.5355
      vertex 77.1492 15.7 19.25
      vertex 77.3806 15.7 21.9134
    endloop
  endfacet
  facet normal 0 1 0
    outer loop
      vertex 77.3806 15.7 21.9134
      vertex 77.1492 15.7 19.25
      vertex 77 15.7 20
    endloop
  endfacet
  facet normal 0 1 0
    outer loop
      vertex 14.9134 15.7 24.6194
      vertex 11.0866 15.7 24.6194
      vertex 13 15.7 25
    endloop
  endfacet
  facet normal 0 1 0
    outer loop
      vertex 17.8508 15.7 19.25
      vertex 14.9134 15.7 24.6194
      vertex 16.5355 15.7 23.5355
    endloop
  endfacet
  facet normal 0 1 0
    outer loop
      vertex 14.9134 15.7 24.6194
      vertex 17.8508 15.7 19.25
      vertex 11.0866 15.7 24.6194
    endloop
  endfacet
  facet normal 0 1 0
    outer loop
      vertex 17.8508 15.7 19.25
      vertex 16.5355 15.7 23.5355
      vertex 17.6194 15.7 21.9134
    endloop
  endfacet
  facet normal 0 1 0
    outer loop
      vertex 11.0866 15.7 24.6194
      vertex 17.8508 15.7 19.25
      vertex 9.46447 15.7 23.5355
    endloop
  endfacet
  facet normal 0 1 -0
    outer loop
      vertex 17.8508 15.7 19.25
      vertex 17.6194 15.7 21.9134
      vertex 18 15.7 20
    endloop
  endfacet
  facet normal -0 1 0
    outer loop
      vertex 8.07957 15.7 19.6
      vertex 9.46447 15.7 23.5355
      vertex 17.8508 15.7 19.25
    endloop
  endfacet
  facet normal 0 1 0
    outer loop
      vertex 8.3806 15.7 21.9134
      vertex 8.07957 15.7 19.6
      vertex 8 15.7 20
    endloop
  endfacet
  facet normal 0 1 0
    outer loop
      vertex 9.46447 15.7 23.5355
      vertex 8.07957 15.7 19.6
      vertex 8.3806 15.7 21.9134
    endloop
  endfacet
  facet normal 0 1 -0
    outer loop
      vertex 14 15.7 15
      vertex 8.07957 15.7 19.6
      vertex 17.8508 15.7 19.25
    endloop
  endfacet
  facet normal 0 1 0
    outer loop
      vertex 77.1492 15.7 19.25
      vertex 14 15.7 15
      vertex 17.8508 15.7 19.25
    endloop
  endfacet
  facet normal 0 1 0
    outer loop
      vertex 8.07957 15.7 19.6
      vertex 14 15.7 15
      vertex 8 15.7 19.6
    endloop
  endfacet
  facet normal 0 1 0
    outer loop
      vertex 14 15.7 15
      vertex 8 15.7 4.25
      vertex 8 15.7 19.6
    endloop
  endfacet
  facet normal 0 1 -0
    outer loop
      vertex 14 15.7 0
      vertex 8 15.7 4.25
      vertex 14 15.7 15
    endloop
  endfacet
  facet normal 0 1 0
    outer loop
      vertex 0 15.7 0
      vertex 8 15.7 4.25
      vertex 14 15.7 0
    endloop
  endfacet
  facet normal 0 1 0
    outer loop
      vertex 8 15.7 4.25
      vertex 0 15.7 0
      vertex 0 15.7 4.25
    endloop
  endfacet
  facet normal -1 0 0
    outer loop
      vertex 8 0 4.25
      vertex 8 15.7 19.6
      vertex 8 15.7 4.25
    endloop
  endfacet
  facet normal -1 -0 0
    outer loop
      vertex 8 15.7 19.6
      vertex 8 0 4.25
      vertex 8 0 19.6
    endloop
  endfacet
  facet normal -0 0 1
    outer loop
      vertex 8 15.7 19.6
      vertex 8.07957 0 19.6
      vertex 8.07957 15.7 19.6
    endloop
  endfacet
  facet normal 0 0 1
    outer loop
      vertex 8.07957 0 19.6
      vertex 8 15.7 19.6
      vertex 8 0 19.6
    endloop
  endfacet
  facet normal -1 0 0
    outer loop
      vertex 72 0 0
      vertex 72 15.7 4.25
      vertex 72 15.7 0
    endloop
  endfacet
  facet normal -1 -0 0
    outer loop
      vertex 72 15.7 4.25
      vertex 72 0 0
      vertex 72 0 4.25
    endloop
  endfacet
  facet normal -0 0 1
    outer loop
      vertex 72 15.7 4.25
      vertex 87 0 4.25
      vertex 87 15.7 4.25
    endloop
  endfacet
  facet normal 0 0 1
    outer loop
      vertex 87 0 4.25
      vertex 72 15.7 4.25
      vertex 72 0 4.25
    endloop
  endfacet
  facet normal 1 -0 0
    outer loop
      vertex 87 0 4.25
      vertex 87 15.7 0
      vertex 87 15.7 4.25
    endloop
  endfacet
  facet normal 1 0 0
    outer loop
      vertex 87 15.7 0
      vertex 87 0 4.25
      vertex 87 0 0
    endloop
  endfacet
  facet normal 0 0 -1
    outer loop
      vertex 72 0 0
      vertex 87 15.7 0
      vertex 87 0 0
    endloop
  endfacet
  facet normal -0 0 -1
    outer loop
      vertex 87 15.7 0
      vertex 72 0 0
      vertex 72 15.7 0
    endloop
  endfacet
  facet normal 0 -1 0
    outer loop
      vertex 72 0 0
      vertex 87 0 4.25
      vertex 72 0 4.25
    endloop
  endfacet
  facet normal 0 -1 -0
    outer loop
      vertex 87 0 4.25
      vertex 72 0 0
      vertex 87 0 0
    endloop
  endfacet
  facet normal 0 1 -0
    outer loop
      vertex 87 15.7 0
      vertex 72 15.7 4.25
      vertex 87 15.7 4.25
    endloop
  endfacet
  facet normal 0 1 0
    outer loop
      vertex 72 15.7 4.25
      vertex 87 15.7 0
      vertex 72 15.7 0
    endloop
  endfacet
  facet normal 0.980781 0 -0.19511
    outer loop
      vertex 18 0 20
      vertex 17.8508 15.7 19.25
      vertex 18 15.7 20
    endloop
  endfacet
  facet normal 0.980781 0 -0.19511
    outer loop
      vertex 17.8508 15.7 19.25
      vertex 18 0 20
      vertex 17.8508 0 19.25
    endloop
  endfacet
  facet normal 0.195091 0 0.980785
    outer loop
      vertex 13 15.7 25
      vertex 14.9134 0 24.6194
      vertex 14.9134 15.7 24.6194
    endloop
  endfacet
  facet normal 0.195091 0 0.980785
    outer loop
      vertex 14.9134 0 24.6194
      vertex 13 15.7 25
      vertex 13 0 25
    endloop
  endfacet
  facet normal -0.980783 0 -0.195102
    outer loop
      vertex 8.07957 0 19.6
      vertex 8 15.7 20
      vertex 8.07957 15.7 19.6
    endloop
  endfacet
  facet normal -0.980783 -0 -0.195102
    outer loop
      vertex 8 15.7 20
      vertex 8.07957 0 19.6
      vertex 8 0 20
    endloop
  endfacet
  facet normal 0.980785 -0 0.195091
    outer loop
      vertex 17.6194 0 21.9134
      vertex 18 15.7 20
      vertex 17.6194 15.7 21.9134
    endloop
  endfacet
  facet normal 0.980785 0 0.195091
    outer loop
      vertex 18 15.7 20
      vertex 17.6194 0 21.9134
      vertex 18 0 20
    endloop
  endfacet
  facet normal -0.980785 0 0.195091
    outer loop
      vertex 8 0 20
      vertex 8.3806 15.7 21.9134
      vertex 8 15.7 20
    endloop
  endfacet
  facet normal -0.980785 0 0.195091
    outer loop
      vertex 8.3806 15.7 21.9134
      vertex 8 0 20
      vertex 8.3806 0 21.9134
    endloop
  endfacet
  facet normal 0.555587 0 0.831458
    outer loop
      vertex 14.9134 15.7 24.6194
      vertex 16.5355 0 23.5355
      vertex 16.5355 15.7 23.5355
    endloop
  endfacet
  facet normal 0.555587 0 0.831458
    outer loop
      vertex 16.5355 0 23.5355
      vertex 14.9134 15.7 24.6194
      vertex 14.9134 0 24.6194
    endloop
  endfacet
  facet normal -0.195091 0 0.980785
    outer loop
      vertex 11.0866 15.7 24.6194
      vertex 13 0 25
      vertex 13 15.7 25
    endloop
  endfacet
  facet normal -0.195091 0 0.980785
    outer loop
      vertex 13 0 25
      vertex 11.0866 15.7 24.6194
      vertex 11.0866 0 24.6194
    endloop
  endfacet
  facet normal -0.55558 0 0.831463
    outer loop
      vertex 9.46447 15.7 23.5355
      vertex 11.0866 0 24.6194
      vertex 11.0866 15.7 24.6194
    endloop
  endfacet
  facet normal -0.55558 0 0.831463
    outer loop
      vertex 11.0866 0 24.6194
      vertex 9.46447 15.7 23.5355
      vertex 9.46447 0 23.5355
    endloop
  endfacet
  facet normal -0.831465 0 0.555576
    outer loop
      vertex 8.3806 0 21.9134
      vertex 9.46447 15.7 23.5355
      vertex 8.3806 15.7 21.9134
    endloop
  endfacet
  facet normal -0.831465 0 0.555576
    outer loop
      vertex 9.46447 15.7 23.5355
      vertex 8.3806 0 21.9134
      vertex 9.46447 0 23.5355
    endloop
  endfacet
  facet normal 0.831458 -0 0.555587
    outer loop
      vertex 16.5355 0 23.5355
      vertex 17.6194 15.7 21.9134
      vertex 16.5355 15.7 23.5355
    endloop
  endfacet
  facet normal 0.831458 0 0.555587
    outer loop
      vertex 17.6194 15.7 21.9134
      vertex 16.5355 0 23.5355
      vertex 17.6194 0 21.9134
    endloop
  endfacet
  facet normal 0.980769 0 -0.195173
    outer loop
      vertex 87 0 20
      vertex 86.9801 15.7 19.9
      vertex 87 15.7 20
    endloop
  endfacet
  facet normal 0.980769 0 -0.195173
    outer loop
      vertex 86.9801 15.7 19.9
      vertex 87 0 20
      vertex 86.9801 0 19.9
    endloop
  endfacet
  facet normal -0.980785 0 0.195091
    outer loop
      vertex 77 0 20
      vertex 77.3806 15.7 21.9134
      vertex 77 15.7 20
    endloop
  endfacet
  facet normal -0.980785 0 0.195091
    outer loop
      vertex 77.3806 15.7 21.9134
      vertex 77 0 20
      vertex 77.3806 0 21.9134
    endloop
  endfacet
  facet normal 0.980785 -0 0.195091
    outer loop
      vertex 86.6194 0 21.9134
      vertex 87 15.7 20
      vertex 86.6194 15.7 21.9134
    endloop
  endfacet
  facet normal 0.980785 0 0.195091
    outer loop
      vertex 87 15.7 20
      vertex 86.6194 0 21.9134
      vertex 87 0 20
    endloop
  endfacet
  facet normal -0.831458 0 0.555587
    outer loop
      vertex 77.3806 0 21.9134
      vertex 78.4645 15.7 23.5355
      vertex 77.3806 15.7 21.9134
    endloop
  endfacet
  facet normal -0.831458 0 0.555587
    outer loop
      vertex 78.4645 15.7 23.5355
      vertex 77.3806 0 21.9134
      vertex 78.4645 0 23.5355
    endloop
  endfacet
  facet normal -0.980781 0 -0.19511
    outer loop
      vertex 77.1492 0 19.25
      vertex 77 15.7 20
      vertex 77.1492 15.7 19.25
    endloop
  endfacet
  facet normal -0.980781 -0 -0.19511
    outer loop
      vertex 77 15.7 20
      vertex 77.1492 0 19.25
      vertex 77 0 20
    endloop
  endfacet
  facet normal 0.555587 0 0.831458
    outer loop
      vertex 83.9134 15.7 24.6194
      vertex 85.5355 0 23.5355
      vertex 85.5355 15.7 23.5355
    endloop
  endfacet
  facet normal 0.555587 0 0.831458
    outer loop
      vertex 85.5355 0 23.5355
      vertex 83.9134 15.7 24.6194
      vertex 83.9134 0 24.6194
    endloop
  endfacet
  facet normal 0.831458 -0 0.555587
    outer loop
      vertex 85.5355 0 23.5355
      vertex 86.6194 15.7 21.9134
      vertex 85.5355 15.7 23.5355
    endloop
  endfacet
  facet normal 0.831458 0 0.555587
    outer loop
      vertex 86.6194 15.7 21.9134
      vertex 85.5355 0 23.5355
      vertex 86.6194 0 21.9134
    endloop
  endfacet
  facet normal -0.555587 0 0.831458
    outer loop
      vertex 78.4645 15.7 23.5355
      vertex 80.0866 0 24.6194
      vertex 80.0866 15.7 24.6194
    endloop
  endfacet
  facet normal -0.555587 0 0.831458
    outer loop
      vertex 80.0866 0 24.6194
      vertex 78.4645 15.7 23.5355
      vertex 78.4645 0 23.5355
    endloop
  endfacet
  facet normal 0.195091 0 0.980785
    outer loop
      vertex 82 15.7 25
      vertex 83.9134 0 24.6194
      vertex 83.9134 15.7 24.6194
    endloop
  endfacet
  facet normal 0.195091 0 0.980785
    outer loop
      vertex 83.9134 0 24.6194
      vertex 82 15.7 25
      vertex 82 0 25
    endloop
  endfacet
  facet normal -0.195091 0 0.980785
    outer loop
      vertex 80.0866 15.7 24.6194
      vertex 82 0 25
      vertex 82 15.7 25
    endloop
  endfacet
  facet normal -0.195091 0 0.980785
    outer loop
      vertex 82 0 25
      vertex 80.0866 15.7 24.6194
      vertex 80.0866 0 24.6194
    endloop
  endfacet
  facet normal -1 0 0
    outer loop
      vertex 82 0 4.3
      vertex 82 15.7 15
      vertex 82 15.7 4.3
    endloop
  endfacet
  facet normal -1 -0 0
    outer loop
      vertex 82 15.7 15
      vertex 82 0 4.3
      vertex 82 0 15
    endloop
  endfacet
  facet normal -0 0 1
    outer loop
      vertex 86.9801 15.7 19.9
      vertex 87 0 19.9
      vertex 87 15.7 19.9
    endloop
  endfacet
  facet normal 0 0 1
    outer loop
      vertex 87 0 19.9
      vertex 86.9801 15.7 19.9
      vertex 86.9801 0 19.9
    endloop
  endfacet
  facet normal 1 -0 0
    outer loop
      vertex 87 0 19.9
      vertex 87 15.7 4.3
      vertex 87 15.7 19.9
    endloop
  endfacet
  facet normal 1 0 0
    outer loop
      vertex 87 15.7 4.3
      vertex 87 0 19.9
      vertex 87 0 4.3
    endloop
  endfacet
  facet normal 0 0 -1
    outer loop
      vertex 82 0 4.3
      vertex 87 15.7 4.3
      vertex 87 0 4.3
    endloop
  endfacet
  facet normal -0 0 -1
    outer loop
      vertex 87 15.7 4.3
      vertex 82 0 4.3
      vertex 82 15.7 4.3
    endloop
  endfacet
  facet normal -0 0 1
    outer loop
      vertex 17.8508 15.7 19.25
      vertex 77.1492 0 19.25
      vertex 77.1492 15.7 19.25
    endloop
  endfacet
  facet normal 0 0 1
    outer loop
      vertex 77.1492 0 19.25
      vertex 17.8508 15.7 19.25
      vertex 17.8508 0 19.25
    endloop
  endfacet
  facet normal 0 0 -1
    outer loop
      vertex 14 0 15
      vertex 82 15.7 15
      vertex 82 0 15
    endloop
  endfacet
  facet normal -0 0 -1
    outer loop
      vertex 82 15.7 15
      vertex 14 0 15
      vertex 14 15.7 15
    endloop
  endfacet
endsolid OpenSCAD_Model
