solid OpenSCAD_Model
  facet normal 0.986361 0.164596 0
    outer loop
      vertex 6 0 150
      vertex 5.6749 1.9482 0
      vertex 5.6749 1.9482 150
    endloop
  endfacet
  facet normal 0.986361 0.164596 0
    outer loop
      vertex 5.6749 1.9482 0
      vertex 6 0 150
      vertex 6 0 0
    endloop
  endfacet
  facet normal 0.879474 0.475947 0
    outer loop
      vertex 5.6749 1.9482 150
      vertex 4.73484 3.68528 0
      vertex 4.73484 3.68528 150
    endloop
  endfacet
  facet normal 0.879474 0.475947 0
    outer loop
      vertex 4.73484 3.68528 0
      vertex 5.6749 1.9482 150
      vertex 5.6749 1.9482 0
    endloop
  endfacet
  facet normal 0.677282 0.735724 -0
    outer loop
      vertex 4.73484 3.68528 0
      vertex 3.28169 5.023 150
      vertex 4.73484 3.68528 150
    endloop
  endfacet
  facet normal 0.677282 0.735724 0
    outer loop
      vertex 3.28169 5.023 150
      vertex 4.73484 3.68528 0
      vertex 3.28169 5.023 0
    endloop
  endfacet
  facet normal 0.401694 0.915774 -0
    outer loop
      vertex 3.28169 5.023 0
      vertex 1.47291 5.8164 150
      vertex 3.28169 5.023 150
    endloop
  endfacet
  facet normal 0.401694 0.915774 0
    outer loop
      vertex 1.47291 5.8164 150
      vertex 3.28169 5.023 0
      vertex 1.47291 5.8164 0
    endloop
  endfacet
  facet normal 0.0825818 0.996584 -0
    outer loop
      vertex 1.47291 5.8164 0
      vertex -0.495476 5.97951 150
      vertex 1.47291 5.8164 150
    endloop
  endfacet
  facet normal 0.0825818 0.996584 0
    outer loop
      vertex -0.495476 5.97951 150
      vertex 1.47291 5.8164 0
      vertex -0.495476 5.97951 0
    endloop
  endfacet
  facet normal -0.245487 0.9694 0
    outer loop
      vertex -0.495476 5.97951 0
      vertex -2.41017 5.49464 150
      vertex -0.495476 5.97951 150
    endloop
  endfacet
  facet normal -0.245487 0.9694 0
    outer loop
      vertex -2.41017 5.49464 150
      vertex -0.495476 5.97951 0
      vertex -2.41017 5.49464 0
    endloop
  endfacet
  facet normal -0.546949 0.837166 0
    outer loop
      vertex -2.41017 5.49464 0
      vertex -4.06369 4.41434 150
      vertex -2.41017 5.49464 150
    endloop
  endfacet
  facet normal -0.546949 0.837166 0
    outer loop
      vertex -4.06369 4.41434 150
      vertex -2.41017 5.49464 0
      vertex -4.06369 4.41434 0
    endloop
  endfacet
  facet normal -0.789141 0.614212 0
    outer loop
      vertex -5.27684 2.85568 0
      vertex -4.06369 4.41434 150
      vertex -4.06369 4.41434 0
    endloop
  endfacet
  facet normal -0.789141 0.614212 0
    outer loop
      vertex -4.06369 4.41434 150
      vertex -5.27684 2.85568 0
      vertex -5.27684 2.85568 150
    endloop
  endfacet
  facet normal -0.945816 0.324702 0
    outer loop
      vertex -5.91817 0.987568 0
      vertex -5.27684 2.85568 150
      vertex -5.27684 2.85568 0
    endloop
  endfacet
  facet normal -0.945816 0.324702 0
    outer loop
      vertex -5.27684 2.85568 150
      vertex -5.91817 0.987568 0
      vertex -5.91817 0.987568 150
    endloop
  endfacet
  facet normal -1 0 0
    outer loop
      vertex -5.91817 -0.987568 0
      vertex -5.91817 0.987568 150
      vertex -5.91817 0.987568 0
    endloop
  endfacet
  facet normal -1 -0 0
    outer loop
      vertex -5.91817 0.987568 150
      vertex -5.91817 -0.987568 0
      vertex -5.91817 -0.987568 150
    endloop
  endfacet
  facet normal -0.945816 -0.324702 0
    outer loop
      vertex -5.27684 -2.85568 0
      vertex -5.91817 -0.987568 150
      vertex -5.91817 -0.987568 0
    endloop
  endfacet
  facet normal -0.945816 -0.324702 0
    outer loop
      vertex -5.91817 -0.987568 150
      vertex -5.27684 -2.85568 0
      vertex -5.27684 -2.85568 150
    endloop
  endfacet
  facet normal -0.789141 -0.614212 0
    outer loop
      vertex -4.06369 -4.41434 0
      vertex -5.27684 -2.85568 150
      vertex -5.27684 -2.85568 0
    endloop
  endfacet
  facet normal -0.789141 -0.614212 0
    outer loop
      vertex -5.27684 -2.85568 150
      vertex -4.06369 -4.41434 0
      vertex -4.06369 -4.41434 150
    endloop
  endfacet
  facet normal -0.546949 -0.837166 0
    outer loop
      vertex -4.06369 -4.41434 0
      vertex -2.41017 -5.49464 150
      vertex -4.06369 -4.41434 150
    endloop
  endfacet
  facet normal -0.546949 -0.837166 -0
    outer loop
      vertex -2.41017 -5.49464 150
      vertex -4.06369 -4.41434 0
      vertex -2.41017 -5.49464 0
    endloop
  endfacet
  facet normal -0.245487 -0.9694 0
    outer loop
      vertex -2.41017 -5.49464 0
      vertex -0.495476 -5.97951 150
      vertex -2.41017 -5.49464 150
    endloop
  endfacet
  facet normal -0.245487 -0.9694 -0
    outer loop
      vertex -0.495476 -5.97951 150
      vertex -2.41017 -5.49464 0
      vertex -0.495476 -5.97951 0
    endloop
  endfacet
  facet normal 0.0825818 -0.996584 0
    outer loop
      vertex -0.495476 -5.97951 0
      vertex 1.47291 -5.8164 150
      vertex -0.495476 -5.97951 150
    endloop
  endfacet
  facet normal 0.0825818 -0.996584 0
    outer loop
      vertex 1.47291 -5.8164 150
      vertex -0.495476 -5.97951 0
      vertex 1.47291 -5.8164 0
    endloop
  endfacet
  facet normal 0.401694 -0.915774 0
    outer loop
      vertex 1.47291 -5.8164 0
      vertex 3.28169 -5.023 150
      vertex 1.47291 -5.8164 150
    endloop
  endfacet
  facet normal 0.401694 -0.915774 0
    outer loop
      vertex 3.28169 -5.023 150
      vertex 1.47291 -5.8164 0
      vertex 3.28169 -5.023 0
    endloop
  endfacet
  facet normal 0.677282 -0.735724 0
    outer loop
      vertex 3.28169 -5.023 0
      vertex 4.73484 -3.68528 150
      vertex 3.28169 -5.023 150
    endloop
  endfacet
  facet normal 0.677282 -0.735724 0
    outer loop
      vertex 4.73484 -3.68528 150
      vertex 3.28169 -5.023 0
      vertex 4.73484 -3.68528 0
    endloop
  endfacet
  facet normal 0.879474 -0.475947 0
    outer loop
      vertex 4.73484 -3.68528 150
      vertex 5.6749 -1.9482 0
      vertex 5.6749 -1.9482 150
    endloop
  endfacet
  facet normal 0.879474 -0.475947 0
    outer loop
      vertex 5.6749 -1.9482 0
      vertex 4.73484 -3.68528 150
      vertex 4.73484 -3.68528 0
    endloop
  endfacet
  facet normal 0.986361 -0.164596 0
    outer loop
      vertex 5.6749 -1.9482 150
      vertex 6 0 0
      vertex 6 0 150
    endloop
  endfacet
  facet normal 0.986361 -0.164596 0
    outer loop
      vertex 6 0 0
      vertex 5.6749 -1.9482 150
      vertex 5.6749 -1.9482 0
    endloop
  endfacet
  facet normal 0 0 -1
    outer loop
      vertex 5.6749 -1.9482 0
      vertex 5.6749 1.9482 0
      vertex 6 0 0
    endloop
  endfacet
  facet normal 0 0 -1
    outer loop
      vertex 4.73484 -3.68528 0
      vertex 5.6749 1.9482 0
      vertex 5.6749 -1.9482 0
    endloop
  endfacet
  facet normal 0 0 -1
    outer loop
      vertex 4.73484 -3.68528 0
      vertex 4.73484 3.68528 0
      vertex 5.6749 1.9482 0
    endloop
  endfacet
  facet normal 0 0 -1
    outer loop
      vertex 3.28169 -5.023 0
      vertex 4.73484 3.68528 0
      vertex 4.73484 -3.68528 0
    endloop
  endfacet
  facet normal 0 0 -1
    outer loop
      vertex 3.28169 -5.023 0
      vertex 3.28169 5.023 0
      vertex 4.73484 3.68528 0
    endloop
  endfacet
  facet normal 0 0 -1
    outer loop
      vertex 1.47291 -5.8164 0
      vertex 3.28169 5.023 0
      vertex 3.28169 -5.023 0
    endloop
  endfacet
  facet normal 0 0 -1
    outer loop
      vertex 1.47291 -5.8164 0
      vertex 1.47291 5.8164 0
      vertex 3.28169 5.023 0
    endloop
  endfacet
  facet normal 0 0 -1
    outer loop
      vertex -0.495476 -5.97951 0
      vertex 1.47291 5.8164 0
      vertex 1.47291 -5.8164 0
    endloop
  endfacet
  facet normal 0 0 -1
    outer loop
      vertex -0.495476 -5.97951 0
      vertex -0.495476 5.97951 0
      vertex 1.47291 5.8164 0
    endloop
  endfacet
  facet normal 0 0 -1
    outer loop
      vertex -2.41017 -5.49464 0
      vertex -0.495476 5.97951 0
      vertex -0.495476 -5.97951 0
    endloop
  endfacet
  facet normal 0 0 -1
    outer loop
      vertex -2.41017 -5.49464 0
      vertex -2.41017 5.49464 0
      vertex -0.495476 5.97951 0
    endloop
  endfacet
  facet normal 0 0 -1
    outer loop
      vertex -4.06369 -4.41434 0
      vertex -2.41017 5.49464 0
      vertex -2.41017 -5.49464 0
    endloop
  endfacet
  facet normal 0 0 -1
    outer loop
      vertex -4.06369 -4.41434 0
      vertex -4.06369 4.41434 0
      vertex -2.41017 5.49464 0
    endloop
  endfacet
  facet normal 0 0 -1
    outer loop
      vertex -5.27684 -2.85568 0
      vertex -4.06369 4.41434 0
      vertex -4.06369 -4.41434 0
    endloop
  endfacet
  facet normal 0 0 -1
    outer loop
      vertex -5.27684 -2.85568 0
      vertex -5.27684 2.85568 0
      vertex -4.06369 4.41434 0
    endloop
  endfacet
  facet normal 0 0 -1
    outer loop
      vertex -5.91817 -0.987568 0
      vertex -5.27684 2.85568 0
      vertex -5.27684 -2.85568 0
    endloop
  endfacet
  facet normal 0 0 -1
    outer loop
      vertex -5.27684 2.85568 0
      vertex -5.91817 -0.987568 0
      vertex -5.91817 0.987568 0
    endloop
  endfacet
  facet normal 0 0 1
    outer loop
      vertex 5.6749 1.9482 150
      vertex 5.6749 -1.9482 150
      vertex 6 0 150
    endloop
  endfacet
  facet normal 0 0 1
    outer loop
      vertex 4.73484 3.68528 150
      vertex 5.6749 -1.9482 150
      vertex 5.6749 1.9482 150
    endloop
  endfacet
  facet normal 0 0 1
    outer loop
      vertex 4.73484 3.68528 150
      vertex 4.73484 -3.68528 150
      vertex 5.6749 -1.9482 150
    endloop
  endfacet
  facet normal 0 0 1
    outer loop
      vertex 3.28169 5.023 150
      vertex 4.73484 -3.68528 150
      vertex 4.73484 3.68528 150
    endloop
  endfacet
  facet normal 0 0 1
    outer loop
      vertex 3.28169 5.023 150
      vertex 3.28169 -5.023 150
      vertex 4.73484 -3.68528 150
    endloop
  endfacet
  facet normal 0 0 1
    outer loop
      vertex 1.47291 5.8164 150
      vertex 3.28169 -5.023 150
      vertex 3.28169 5.023 150
    endloop
  endfacet
  facet normal 0 0 1
    outer loop
      vertex 1.47291 5.8164 150
      vertex 1.47291 -5.8164 150
      vertex 3.28169 -5.023 150
    endloop
  endfacet
  facet normal 0 0 1
    outer loop
      vertex -0.495476 5.97951 150
      vertex 1.47291 -5.8164 150
      vertex 1.47291 5.8164 150
    endloop
  endfacet
  facet normal 0 0 1
    outer loop
      vertex -0.495476 5.97951 150
      vertex -0.495476 -5.97951 150
      vertex 1.47291 -5.8164 150
    endloop
  endfacet
  facet normal -0 0 1
    outer loop
      vertex -2.41017 5.49464 150
      vertex -0.495476 -5.97951 150
      vertex -0.495476 5.97951 150
    endloop
  endfacet
  facet normal 0 0 1
    outer loop
      vertex -2.41017 5.49464 150
      vertex -2.41017 -5.49464 150
      vertex -0.495476 -5.97951 150
    endloop
  endfacet
  facet normal -0 0 1
    outer loop
      vertex -4.06369 4.41434 150
      vertex -2.41017 -5.49464 150
      vertex -2.41017 5.49464 150
    endloop
  endfacet
  facet normal 0 0 1
    outer loop
      vertex -4.06369 4.41434 150
      vertex -4.06369 -4.41434 150
      vertex -2.41017 -5.49464 150
    endloop
  endfacet
  facet normal -0 0 1
    outer loop
      vertex -5.27684 2.85568 150
      vertex -4.06369 -4.41434 150
      vertex -4.06369 4.41434 150
    endloop
  endfacet
  facet normal 0 0 1
    outer loop
      vertex -5.27684 2.85568 150
      vertex -5.27684 -2.85568 150
      vertex -4.06369 -4.41434 150
    endloop
  endfacet
  facet normal -0 0 1
    outer loop
      vertex -5.91817 0.987568 150
      vertex -5.27684 -2.85568 150
      vertex -5.27684 2.85568 150
    endloop
  endfacet
  facet normal 0 0 1
    outer loop
      vertex -5.27684 -2.85568 150
      vertex -5.91817 0.987568 150
      vertex -5.91817 -0.987568 150
    endloop
  endfacet
endsolid OpenSCAD_Model
